<?xml version="1.0" encoding="UTF-8" standalone="no"?>
<!DOCTYPE svg PUBLIC "-//W3C//DTD SVG 1.1//EN"
 "http://www.w3.org/Graphics/SVG/1.1/DTD/svg11.dtd">
<!-- Generated by graphviz version 2.40.1 (20161225.0304)
 -->
<!-- Title: dependencies Pages: 1 -->
<svg width="4712pt" height="284pt"
 viewBox="0.00 0.00 4712.00 284.00" xmlns="http://www.w3.org/2000/svg" xmlns:xlink="http://www.w3.org/1999/xlink">
<g id="graph0" class="graph" transform="scale(1 1) rotate(0) translate(4 280)">
<title>dependencies</title>
<polygon fill="#ffffff" stroke="transparent" points="-4,4 -4,-280 4708,-280 4708,4 -4,4"/>
<text text-anchor="start" x="2331.0091" y="-42.4" font-family="sans-serif" font-weight="bold" font-size="14.00" fill="#000000">Legend</text>
<polygon fill="#ffffb3" stroke="transparent" points="2118,-10 2118,-30 2138,-30 2138,-10 2118,-10"/>
<text text-anchor="start" x="2141.629" y="-15.4" font-family="sans-serif" font-size="14.00" fill="#000000"> &#160;Declarations</text>
<polygon fill="#8dd3c7" stroke="transparent" points="2231,-10 2231,-30 2251,-30 2251,-10 2231,-10"/>
<text text-anchor="start" x="2254.7251" y="-15.4" font-family="sans-serif" font-size="14.00" fill="#000000"> &#160;Module</text>
<polygon fill="#80b1d3" stroke="transparent" points="2317,-10 2317,-30 2337,-30 2337,-10 2317,-10"/>
<text text-anchor="start" x="2340.7812" y="-15.4" font-family="sans-serif" font-size="14.00" fill="#000000"> &#160;Bootstrap</text>
<polygon fill="#fdb462" stroke="transparent" points="2414,-10 2414,-30 2434,-30 2434,-10 2414,-10"/>
<text text-anchor="start" x="2437.6732" y="-15.4" font-family="sans-serif" font-size="14.00" fill="#000000"> &#160;Providers</text>
<polygon fill="#fb8072" stroke="transparent" points="2510,-10 2510,-30 2530,-30 2530,-10 2510,-10"/>
<text text-anchor="start" x="2533.7258" y="-15.4" font-family="sans-serif" font-size="14.00" fill="#000000"> &#160;Exports</text>
<g id="clust1" class="cluster">
<title>cluster_AppModule</title>
<polygon fill="none" stroke="#000000" stroke-dasharray="1,5" points="8,-70 8,-268 4696,-268 4696,-70 8,-70"/>
</g>
<g id="clust2" class="cluster">
<title>cluster_AppModule_declarations</title>
<polygon fill="none" stroke="#000000" points="4566,-78 4566,-130 4688,-130 4688,-78 4566,-78"/>
</g>
<g id="clust4" class="cluster">
<title>cluster_AppModule_imports</title>
<polygon fill="none" stroke="#000000" points="3645,-78 3645,-130 4558,-130 4558,-78 3645,-78"/>
</g>
<g id="clust6" class="cluster">
<title>cluster_AppModule_bootstrap</title>
<polygon fill="none" stroke="#000000" points="2599,-208 2599,-260 2723,-260 2723,-208 2599,-208"/>
</g>
<g id="clust7" class="cluster">
<title>cluster_AppModule_providers</title>
<polygon fill="none" stroke="#000000" points="16,-78 16,-130 3637,-130 3637,-78 16,-78"/>
</g>
<!-- AppComponent -->
<g id="node1" class="node">
<title>AppComponent</title>
<polygon fill="#ffffb3" stroke="#000000" points="4679.9399,-122 4574.0601,-122 4574.0601,-86 4679.9399,-86 4679.9399,-122"/>
<text text-anchor="middle" x="4627" y="-99.8" font-family="Times,serif" font-size="14.00" fill="#000000">AppComponent</text>
</g>
<!-- AppModule -->
<g id="node2" class="node">
<title>AppModule</title>
<polygon fill="#8dd3c7" stroke="#000000" points="2702.6571,-187 2699.6571,-191 2678.6571,-191 2675.6571,-187 2619.3429,-187 2619.3429,-151 2702.6571,-151 2702.6571,-187"/>
<text text-anchor="middle" x="2661" y="-164.8" font-family="Times,serif" font-size="14.00" fill="#000000">AppModule</text>
</g>
<!-- AppComponent&#45;&gt;AppModule -->
<g id="edge1" class="edge">
<title>AppComponent&#45;&gt;AppModule</title>
<path fill="none" stroke="#000000" d="M4627,-122.3802C4627,-146.2785 4627,-185 4627,-185 4627,-185 2712.9722,-185 2712.9722,-185"/>
<polygon fill="#000000" stroke="#000000" points="2712.9723,-181.5001 2702.9722,-185 2712.9722,-188.5001 2712.9723,-181.5001"/>
</g>
<!-- AppComponent  -->
<g id="node10" class="node">
<title>AppComponent </title>
<polygon fill="#80b1d3" stroke="#000000" points="2715.439,-252 2606.561,-252 2606.561,-216 2715.439,-216 2715.439,-252"/>
<text text-anchor="middle" x="2661" y="-229.8" font-family="Times,serif" font-size="14.00" fill="#000000">AppComponent </text>
</g>
<!-- AppModule&#45;&gt;AppComponent  -->
<g id="edge9" class="edge">
<title>AppModule&#45;&gt;AppComponent </title>
<path fill="none" stroke="#000000" stroke-dasharray="1,5" d="M2661,-187.1061C2661,-187.1061 2661,-205.991 2661,-205.991"/>
<polygon fill="#000000" stroke="#000000" points="2657.5001,-205.9909 2661,-215.991 2664.5001,-205.991 2657.5001,-205.9909"/>
</g>
<!-- AppRoutingModule -->
<g id="node3" class="node">
<title>AppRoutingModule</title>
<polygon fill="#8dd3c7" stroke="#000000" points="4550.2744,-122 4547.2744,-126 4526.2744,-126 4523.2744,-122 4421.7256,-122 4421.7256,-86 4550.2744,-86 4550.2744,-122"/>
<text text-anchor="middle" x="4486" y="-99.8" font-family="Times,serif" font-size="14.00" fill="#000000">AppRoutingModule</text>
</g>
<!-- AppRoutingModule&#45;&gt;AppModule -->
<g id="edge2" class="edge">
<title>AppRoutingModule&#45;&gt;AppModule</title>
<path fill="none" stroke="#000000" d="M4486,-122.0908C4486,-145.1328 4486,-182 4486,-182 4486,-182 2712.9849,-182 2712.9849,-182"/>
<polygon fill="#000000" stroke="#000000" points="2712.9849,-178.5001 2702.9849,-182 2712.9849,-185.5001 2712.9849,-178.5001"/>
</g>
<!-- AuthenticationModule -->
<g id="node4" class="node">
<title>AuthenticationModule</title>
<polygon fill="#8dd3c7" stroke="#000000" points="4403.2534,-122 4400.2534,-126 4379.2534,-126 4376.2534,-122 4260.7466,-122 4260.7466,-86 4403.2534,-86 4403.2534,-122"/>
<text text-anchor="middle" x="4332" y="-99.8" font-family="Times,serif" font-size="14.00" fill="#000000">AuthenticationModule</text>
</g>
<!-- AuthenticationModule&#45;&gt;AppModule -->
<g id="edge3" class="edge">
<title>AuthenticationModule&#45;&gt;AppModule</title>
<path fill="none" stroke="#000000" d="M4332,-122.0109C4332,-144.4852 4332,-180 4332,-180 4332,-180 2712.7227,-180 2712.7227,-180"/>
<polygon fill="#000000" stroke="#000000" points="2712.7228,-176.5001 2702.7227,-180 2712.7227,-183.5001 2712.7228,-176.5001"/>
</g>
<!-- CoreModule -->
<g id="node5" class="node">
<title>CoreModule</title>
<polygon fill="#8dd3c7" stroke="#000000" points="4242.2619,-122 4239.2619,-126 4218.2619,-126 4215.2619,-122 4155.7381,-122 4155.7381,-86 4242.2619,-86 4242.2619,-122"/>
<text text-anchor="middle" x="4199" y="-99.8" font-family="Times,serif" font-size="14.00" fill="#000000">CoreModule</text>
</g>
<!-- CoreModule&#45;&gt;AppModule -->
<g id="edge4" class="edge">
<title>CoreModule&#45;&gt;AppModule</title>
<path fill="none" stroke="#000000" d="M4199,-122.0449C4199,-143.6623 4199,-177 4199,-177 4199,-177 2712.9354,-177 2712.9354,-177"/>
<polygon fill="#000000" stroke="#000000" points="2712.9355,-173.5001 2702.9354,-177 2712.9354,-180.5001 2712.9355,-173.5001"/>
</g>
<!-- LayoutModule -->
<g id="node6" class="node">
<title>LayoutModule</title>
<polygon fill="#8dd3c7" stroke="#000000" points="4137.7078,-122 4134.7078,-126 4113.7078,-126 4110.7078,-122 4038.2922,-122 4038.2922,-86 4137.7078,-86 4137.7078,-122"/>
<text text-anchor="middle" x="4088" y="-99.8" font-family="Times,serif" font-size="14.00" fill="#000000">LayoutModule</text>
</g>
<!-- LayoutModule&#45;&gt;AppModule -->
<g id="edge5" class="edge">
<title>LayoutModule&#45;&gt;AppModule</title>
<path fill="none" stroke="#000000" d="M4088,-122.2843C4088,-143.3211 4088,-175 4088,-175 4088,-175 2712.9346,-175 2712.9346,-175"/>
<polygon fill="#000000" stroke="#000000" points="2712.9346,-171.5001 2702.9346,-175 2712.9345,-178.5001 2712.9346,-171.5001"/>
</g>
<!-- PagesModule -->
<g id="node7" class="node">
<title>PagesModule</title>
<polygon fill="#8dd3c7" stroke="#000000" points="4020.2064,-122 4017.2064,-126 3996.2064,-126 3993.2064,-122 3927.7936,-122 3927.7936,-86 4020.2064,-86 4020.2064,-122"/>
<text text-anchor="middle" x="3974" y="-99.8" font-family="Times,serif" font-size="14.00" fill="#000000">PagesModule</text>
</g>
<!-- PagesModule&#45;&gt;AppModule -->
<g id="edge6" class="edge">
<title>PagesModule&#45;&gt;AppModule</title>
<path fill="none" stroke="#000000" d="M3974,-122.2228C3974,-142.3652 3974,-172 3974,-172 3974,-172 2712.8307,-172 2712.8307,-172"/>
<polygon fill="#000000" stroke="#000000" points="2712.8307,-168.5001 2702.8307,-172 2712.8306,-175.5001 2712.8307,-168.5001"/>
</g>
<!-- PagesRoutingModule -->
<g id="node8" class="node">
<title>PagesRoutingModule</title>
<polygon fill="#8dd3c7" stroke="#000000" points="3909.8244,-122 3906.8244,-126 3885.8244,-126 3882.8244,-122 3772.1756,-122 3772.1756,-86 3909.8244,-86 3909.8244,-122"/>
<text text-anchor="middle" x="3841" y="-99.8" font-family="Times,serif" font-size="14.00" fill="#000000">PagesRoutingModule</text>
</g>
<!-- PagesRoutingModule&#45;&gt;AppModule -->
<g id="edge7" class="edge">
<title>PagesRoutingModule&#45;&gt;AppModule</title>
<path fill="none" stroke="#000000" d="M3841,-122.1061C3841,-141.3391 3841,-169 3841,-169 3841,-169 2712.9968,-169 2712.9968,-169"/>
<polygon fill="#000000" stroke="#000000" points="2712.9969,-165.5001 2702.9968,-169 2712.9968,-172.5001 2712.9969,-165.5001"/>
</g>
<!-- PartialsModule -->
<g id="node9" class="node">
<title>PartialsModule</title>
<polygon fill="#8dd3c7" stroke="#000000" points="3754.5396,-122 3751.5396,-126 3730.5396,-126 3727.5396,-122 3653.4604,-122 3653.4604,-86 3754.5396,-86 3754.5396,-122"/>
<text text-anchor="middle" x="3704" y="-99.8" font-family="Times,serif" font-size="14.00" fill="#000000">PartialsModule</text>
</g>
<!-- PartialsModule&#45;&gt;AppModule -->
<g id="edge8" class="edge">
<title>PartialsModule&#45;&gt;AppModule</title>
<path fill="none" stroke="#000000" d="M3704,-122.2222C3704,-140.8285 3704,-167 3704,-167 3704,-167 2712.854,-167 2712.854,-167"/>
<polygon fill="#000000" stroke="#000000" points="2712.854,-163.5001 2702.854,-167 2712.8539,-170.5001 2712.854,-163.5001"/>
</g>
<!-- AclService -->
<g id="node11" class="node">
<title>AclService</title>
<ellipse fill="#fdb462" stroke="#000000" cx="3575" cy="-104" rx="53.8673" ry="18"/>
<text text-anchor="middle" x="3575" y="-99.8" font-family="Times,serif" font-size="14.00" fill="#000000">AclService</text>
</g>
<!-- AclService&#45;&gt;AppModule -->
<g id="edge10" class="edge">
<title>AclService&#45;&gt;AppModule</title>
<path fill="none" stroke="#000000" d="M3575,-122.002C3575,-139.6754 3575,-164 3575,-164 3575,-164 2712.9489,-164 2712.9489,-164"/>
<polygon fill="#000000" stroke="#000000" points="2712.9489,-160.5001 2702.9489,-164 2712.9489,-167.5001 2712.9489,-160.5001"/>
</g>
<!-- AuthInterceptor -->
<g id="node12" class="node">
<title>AuthInterceptor</title>
<ellipse fill="#fdb462" stroke="#000000" cx="3430" cy="-104" rx="72.9121" ry="18"/>
<text text-anchor="middle" x="3430" y="-99.8" font-family="Times,serif" font-size="14.00" fill="#000000">AuthInterceptor</text>
</g>
<!-- AuthInterceptor&#45;&gt;AppModule -->
<g id="edge11" class="edge">
<title>AuthInterceptor&#45;&gt;AppModule</title>
<path fill="none" stroke="#000000" d="M3430,-122.0336C3430,-139.0597 3430,-162 3430,-162 3430,-162 2712.8909,-162 2712.8909,-162"/>
<polygon fill="#000000" stroke="#000000" points="2712.8909,-158.5001 2702.8909,-162 2712.8909,-165.5001 2712.8909,-158.5001"/>
</g>
<!-- ClassInitService -->
<g id="node13" class="node">
<title>ClassInitService</title>
<ellipse fill="#fdb462" stroke="#000000" cx="3265" cy="-104" rx="74.1489" ry="18"/>
<text text-anchor="middle" x="3265" y="-99.8" font-family="Times,serif" font-size="14.00" fill="#000000">ClassInitService</text>
</g>
<!-- ClassInitService&#45;&gt;AppModule -->
<g id="edge12" class="edge">
<title>ClassInitService&#45;&gt;AppModule</title>
<path fill="none" stroke="#000000" d="M3265,-122.0091C3265,-138.0494 3265,-159 3265,-159 3265,-159 2712.9926,-159 2712.9926,-159"/>
<polygon fill="#000000" stroke="#000000" points="2712.9926,-155.5001 2702.9926,-159 2712.9925,-162.5001 2712.9926,-155.5001"/>
</g>
<!-- ClipboardService -->
<g id="node14" class="node">
<title>ClipboardService</title>
<ellipse fill="#fdb462" stroke="#000000" cx="3094" cy="-104" rx="78.7298" ry="18"/>
<text text-anchor="middle" x="3094" y="-99.8" font-family="Times,serif" font-size="14.00" fill="#000000">ClipboardService</text>
</g>
<!-- ClipboardService&#45;&gt;AppModule -->
<g id="edge13" class="edge">
<title>ClipboardService&#45;&gt;AppModule</title>
<path fill="none" stroke="#000000" d="M3094,-122.2396C3094,-137.5706 3094,-157 3094,-157 3094,-157 2712.9113,-157 2712.9113,-157"/>
<polygon fill="#000000" stroke="#000000" points="2712.9113,-153.5001 2702.9113,-157 2712.9113,-160.5001 2712.9113,-153.5001"/>
</g>
<!-- DataTableService -->
<g id="node15" class="node">
<title>DataTableService</title>
<ellipse fill="#fdb462" stroke="#000000" cx="2917" cy="-104" rx="80.4112" ry="18"/>
<text text-anchor="middle" x="2917" y="-99.8" font-family="Times,serif" font-size="14.00" fill="#000000">DataTableService</text>
</g>
<!-- DataTableService&#45;&gt;AppModule -->
<g id="edge14" class="edge">
<title>DataTableService&#45;&gt;AppModule</title>
<path fill="none" stroke="#000000" d="M2917,-122.0511C2917,-136.373 2917,-154 2917,-154 2917,-154 2712.7006,-154 2712.7006,-154"/>
<polygon fill="#000000" stroke="#000000" points="2712.7006,-150.5001 2702.7006,-154 2712.7005,-157.5001 2712.7006,-150.5001"/>
</g>
<!-- HeaderService -->
<g id="node16" class="node">
<title>HeaderService</title>
<ellipse fill="#fdb462" stroke="#000000" cx="2751" cy="-104" rx="67.7336" ry="18"/>
<text text-anchor="middle" x="2751" y="-99.8" font-family="Times,serif" font-size="14.00" fill="#000000">HeaderService</text>
</g>
<!-- HeaderService&#45;&gt;AppModule -->
<g id="edge15" class="edge">
<title>HeaderService&#45;&gt;AppModule</title>
<path fill="none" stroke="#000000" d="M2692.9808,-113.591C2692.9808,-113.591 2692.9808,-140.748 2692.9808,-140.748"/>
<polygon fill="#000000" stroke="#000000" points="2689.4809,-140.7479 2692.9808,-150.748 2696.4809,-140.748 2689.4809,-140.7479"/>
</g>
<!-- LayoutConfigService -->
<g id="node17" class="node">
<title>LayoutConfigService</title>
<ellipse fill="#fdb462" stroke="#000000" cx="2571" cy="-104" rx="94.3427" ry="18"/>
<text text-anchor="middle" x="2571" y="-99.8" font-family="Times,serif" font-size="14.00" fill="#000000">LayoutConfigService</text>
</g>
<!-- LayoutConfigService&#45;&gt;AppModule -->
<g id="edge16" class="edge">
<title>LayoutConfigService&#45;&gt;AppModule</title>
<path fill="none" stroke="#000000" d="M2642.1715,-115.922C2642.1715,-115.922 2642.1715,-140.7669 2642.1715,-140.7669"/>
<polygon fill="#000000" stroke="#000000" points="2638.6716,-140.7669 2642.1715,-150.7669 2645.6716,-140.7669 2638.6716,-140.7669"/>
</g>
<!-- LayoutConfigStorageService -->
<g id="node18" class="node">
<title>LayoutConfigStorageService</title>
<ellipse fill="#fdb462" stroke="#000000" cx="2335" cy="-104" rx="123.8369" ry="18"/>
<text text-anchor="middle" x="2335" y="-99.8" font-family="Times,serif" font-size="14.00" fill="#000000">LayoutConfigStorageService</text>
</g>
<!-- LayoutConfigStorageService&#45;&gt;AppModule -->
<g id="edge17" class="edge">
<title>LayoutConfigStorageService&#45;&gt;AppModule</title>
<path fill="none" stroke="#000000" d="M2335,-122.0511C2335,-136.373 2335,-154 2335,-154 2335,-154 2609.0486,-154 2609.0486,-154"/>
<polygon fill="#000000" stroke="#000000" points="2609.0486,-157.5001 2619.0486,-154 2609.0486,-150.5001 2609.0486,-157.5001"/>
</g>
<!-- LayoutRefService -->
<g id="node19" class="node">
<title>LayoutRefService</title>
<ellipse fill="#fdb462" stroke="#000000" cx="2112" cy="-104" rx="81.0782" ry="18"/>
<text text-anchor="middle" x="2112" y="-99.8" font-family="Times,serif" font-size="14.00" fill="#000000">LayoutRefService</text>
</g>
<!-- LayoutRefService&#45;&gt;AppModule -->
<g id="edge18" class="edge">
<title>LayoutRefService&#45;&gt;AppModule</title>
<path fill="none" stroke="#000000" d="M2112,-122.2396C2112,-137.5706 2112,-157 2112,-157 2112,-157 2609.2852,-157 2609.2852,-157"/>
<polygon fill="#000000" stroke="#000000" points="2609.2852,-160.5001 2619.2852,-157 2609.2851,-153.5001 2609.2852,-160.5001"/>
</g>
<!-- LogsService -->
<g id="node20" class="node">
<title>LogsService</title>
<ellipse fill="#fdb462" stroke="#000000" cx="1953" cy="-104" rx="59.1083" ry="18"/>
<text text-anchor="middle" x="1953" y="-99.8" font-family="Times,serif" font-size="14.00" fill="#000000">LogsService</text>
</g>
<!-- LogsService&#45;&gt;AppModule -->
<g id="edge19" class="edge">
<title>LogsService&#45;&gt;AppModule</title>
<path fill="none" stroke="#000000" d="M1953,-122.0091C1953,-138.0494 1953,-159 1953,-159 1953,-159 2609.0935,-159 2609.0935,-159"/>
<polygon fill="#000000" stroke="#000000" points="2609.0935,-162.5001 2619.0935,-159 2609.0934,-155.5001 2609.0935,-162.5001"/>
</g>
<!-- MenuAsideService -->
<g id="node21" class="node">
<title>MenuAsideService</title>
<ellipse fill="#fdb462" stroke="#000000" cx="1791" cy="-104" rx="85.0908" ry="18"/>
<text text-anchor="middle" x="1791" y="-99.8" font-family="Times,serif" font-size="14.00" fill="#000000">MenuAsideService</text>
</g>
<!-- MenuAsideService&#45;&gt;AppModule -->
<g id="edge20" class="edge">
<title>MenuAsideService&#45;&gt;AppModule</title>
<path fill="none" stroke="#000000" d="M1791,-122.0336C1791,-139.0597 1791,-162 1791,-162 1791,-162 2609.3312,-162 2609.3312,-162"/>
<polygon fill="#000000" stroke="#000000" points="2609.3312,-165.5001 2619.3312,-162 2609.3312,-158.5001 2609.3312,-165.5001"/>
</g>
<!-- MenuConfigService -->
<g id="node22" class="node">
<title>MenuConfigService</title>
<ellipse fill="#fdb462" stroke="#000000" cx="1599" cy="-104" rx="89.1877" ry="18"/>
<text text-anchor="middle" x="1599" y="-99.8" font-family="Times,serif" font-size="14.00" fill="#000000">MenuConfigService</text>
</g>
<!-- MenuConfigService&#45;&gt;AppModule -->
<g id="edge21" class="edge">
<title>MenuConfigService&#45;&gt;AppModule</title>
<path fill="none" stroke="#000000" d="M1599,-122.002C1599,-139.6754 1599,-164 1599,-164 1599,-164 2609.0412,-164 2609.0412,-164"/>
<polygon fill="#000000" stroke="#000000" points="2609.0413,-167.5001 2619.0412,-164 2609.0412,-160.5001 2609.0413,-167.5001"/>
</g>
<!-- MenuHorizontalService -->
<g id="node23" class="node">
<title>MenuHorizontalService</title>
<ellipse fill="#fdb462" stroke="#000000" cx="1388" cy="-104" rx="103.6315" ry="18"/>
<text text-anchor="middle" x="1388" y="-99.8" font-family="Times,serif" font-size="14.00" fill="#000000">MenuHorizontalService</text>
</g>
<!-- MenuHorizontalService&#45;&gt;AppModule -->
<g id="edge22" class="edge">
<title>MenuHorizontalService&#45;&gt;AppModule</title>
<path fill="none" stroke="#000000" d="M1388,-122.2222C1388,-140.8285 1388,-167 1388,-167 1388,-167 2609.0076,-167 2609.0076,-167"/>
<polygon fill="#000000" stroke="#000000" points="2609.0076,-170.5001 2619.0076,-167 2609.0076,-163.5001 2609.0076,-170.5001"/>
</g>
<!-- MessengerService -->
<g id="node24" class="node">
<title>MessengerService</title>
<ellipse fill="#fdb462" stroke="#000000" cx="1184" cy="-104" rx="81.6384" ry="18"/>
<text text-anchor="middle" x="1184" y="-99.8" font-family="Times,serif" font-size="14.00" fill="#000000">MessengerService</text>
</g>
<!-- MessengerService&#45;&gt;AppModule -->
<g id="edge23" class="edge">
<title>MessengerService&#45;&gt;AppModule</title>
<path fill="none" stroke="#000000" d="M1184,-122.1061C1184,-141.3391 1184,-169 1184,-169 1184,-169 2609.1755,-169 2609.1755,-169"/>
<polygon fill="#000000" stroke="#000000" points="2609.1755,-172.5001 2619.1755,-169 2609.1754,-165.5001 2609.1755,-172.5001"/>
</g>
<!-- PageConfigService -->
<g id="node25" class="node">
<title>PageConfigService</title>
<ellipse fill="#fdb462" stroke="#000000" cx="999" cy="-104" rx="85.6725" ry="18"/>
<text text-anchor="middle" x="999" y="-99.8" font-family="Times,serif" font-size="14.00" fill="#000000">PageConfigService</text>
</g>
<!-- PageConfigService&#45;&gt;AppModule -->
<g id="edge24" class="edge">
<title>PageConfigService&#45;&gt;AppModule</title>
<path fill="none" stroke="#000000" d="M999,-122.2228C999,-142.3652 999,-172 999,-172 999,-172 2609.0854,-172 2609.0854,-172"/>
<polygon fill="#000000" stroke="#000000" points="2609.0854,-175.5001 2619.0854,-172 2609.0854,-168.5001 2609.0854,-175.5001"/>
</g>
<!-- QuickSearchService -->
<g id="node26" class="node">
<title>QuickSearchService</title>
<ellipse fill="#fdb462" stroke="#000000" cx="806" cy="-104" rx="89.7248" ry="18"/>
<text text-anchor="middle" x="806" y="-99.8" font-family="Times,serif" font-size="14.00" fill="#000000">QuickSearchService</text>
</g>
<!-- QuickSearchService&#45;&gt;AppModule -->
<g id="edge25" class="edge">
<title>QuickSearchService&#45;&gt;AppModule</title>
<path fill="none" stroke="#000000" d="M806,-122.2843C806,-143.3211 806,-175 806,-175 806,-175 2609.2137,-175 2609.2137,-175"/>
<polygon fill="#000000" stroke="#000000" points="2609.2137,-178.5001 2619.2137,-175 2609.2137,-171.5001 2609.2137,-178.5001"/>
</g>
<!-- SplashScreenService -->
<g id="node27" class="node">
<title>SplashScreenService</title>
<ellipse fill="#fdb462" stroke="#000000" cx="606" cy="-104" rx="92.0296" ry="18"/>
<text text-anchor="middle" x="606" y="-99.8" font-family="Times,serif" font-size="14.00" fill="#000000">SplashScreenService</text>
</g>
<!-- SplashScreenService&#45;&gt;AppModule -->
<g id="edge26" class="edge">
<title>SplashScreenService&#45;&gt;AppModule</title>
<path fill="none" stroke="#000000" d="M606,-122.0449C606,-143.6623 606,-177 606,-177 606,-177 2609.0194,-177 2609.0194,-177"/>
<polygon fill="#000000" stroke="#000000" points="2609.0194,-180.5001 2619.0194,-177 2609.0193,-173.5001 2609.0194,-180.5001"/>
</g>
<!-- SubheaderService -->
<g id="node28" class="node">
<title>SubheaderService</title>
<ellipse fill="#fdb462" stroke="#000000" cx="415" cy="-104" rx="80.9988" ry="18"/>
<text text-anchor="middle" x="415" y="-99.8" font-family="Times,serif" font-size="14.00" fill="#000000">SubheaderService</text>
</g>
<!-- SubheaderService&#45;&gt;AppModule -->
<g id="edge27" class="edge">
<title>SubheaderService&#45;&gt;AppModule</title>
<path fill="none" stroke="#000000" d="M415,-122.0109C415,-144.4852 415,-180 415,-180 415,-180 2609.1243,-180 2609.1243,-180"/>
<polygon fill="#000000" stroke="#000000" points="2609.1244,-183.5001 2619.1243,-180 2609.1243,-176.5001 2609.1244,-183.5001"/>
</g>
<!-- TokenInterceptor -->
<g id="node29" class="node">
<title>TokenInterceptor</title>
<ellipse fill="#fdb462" stroke="#000000" cx="238" cy="-104" rx="78.1308" ry="18"/>
<text text-anchor="middle" x="238" y="-99.8" font-family="Times,serif" font-size="14.00" fill="#000000">TokenInterceptor</text>
</g>
<!-- TokenInterceptor&#45;&gt;AppModule -->
<g id="edge28" class="edge">
<title>TokenInterceptor&#45;&gt;AppModule</title>
<path fill="none" stroke="#000000" d="M238,-122.0908C238,-145.1328 238,-182 238,-182 238,-182 2609.1996,-182 2609.1996,-182"/>
<polygon fill="#000000" stroke="#000000" points="2609.1996,-185.5001 2619.1996,-182 2609.1995,-178.5001 2609.1996,-185.5001"/>
</g>
<!-- UtilsService -->
<g id="node30" class="node">
<title>UtilsService</title>
<ellipse fill="#fdb462" stroke="#000000" cx="83" cy="-104" rx="58.5405" ry="18"/>
<text text-anchor="middle" x="83" y="-99.8" font-family="Times,serif" font-size="14.00" fill="#000000">UtilsService</text>
</g>
<!-- UtilsService&#45;&gt;AppModule -->
<g id="edge29" class="edge">
<title>UtilsService&#45;&gt;AppModule</title>
<path fill="none" stroke="#000000" d="M83,-122.3802C83,-146.2785 83,-185 83,-185 83,-185 2609.1986,-185 2609.1986,-185"/>
<polygon fill="#000000" stroke="#000000" points="2609.1986,-188.5001 2619.1986,-185 2609.1986,-181.5001 2609.1986,-188.5001"/>
</g>
</g>
</svg>
