<?xml version="1.0" encoding="UTF-8" standalone="no"?>
<!DOCTYPE svg PUBLIC "-//W3C//DTD SVG 1.1//EN"
 "http://www.w3.org/Graphics/SVG/1.1/DTD/svg11.dtd">
<!-- Generated by graphviz version 2.40.1 (20161225.0304)
 -->
<!-- Title: dependencies Pages: 1 -->
<svg width="981pt" height="284pt"
 viewBox="0.00 0.00 981.00 284.00" xmlns="http://www.w3.org/2000/svg" xmlns:xlink="http://www.w3.org/1999/xlink">
<g id="graph0" class="graph" transform="scale(1 1) rotate(0) translate(4 280)">
<title>dependencies</title>
<polygon fill="#ffffff" stroke="transparent" points="-4,4 -4,-280 977,-280 977,4 -4,4"/>
<text text-anchor="start" x="465.5091" y="-42.4" font-family="sans-serif" font-weight="bold" font-size="14.00" fill="#000000">Legend</text>
<polygon fill="#ffffb3" stroke="transparent" points="252.5,-10 252.5,-30 272.5,-30 272.5,-10 252.5,-10"/>
<text text-anchor="start" x="276.129" y="-15.4" font-family="sans-serif" font-size="14.00" fill="#000000"> &#160;Declarations</text>
<polygon fill="#8dd3c7" stroke="transparent" points="365.5,-10 365.5,-30 385.5,-30 385.5,-10 365.5,-10"/>
<text text-anchor="start" x="389.2251" y="-15.4" font-family="sans-serif" font-size="14.00" fill="#000000"> &#160;Module</text>
<polygon fill="#80b1d3" stroke="transparent" points="451.5,-10 451.5,-30 471.5,-30 471.5,-10 451.5,-10"/>
<text text-anchor="start" x="475.2812" y="-15.4" font-family="sans-serif" font-size="14.00" fill="#000000"> &#160;Bootstrap</text>
<polygon fill="#fdb462" stroke="transparent" points="548.5,-10 548.5,-30 568.5,-30 568.5,-10 548.5,-10"/>
<text text-anchor="start" x="572.1732" y="-15.4" font-family="sans-serif" font-size="14.00" fill="#000000"> &#160;Providers</text>
<polygon fill="#fb8072" stroke="transparent" points="644.5,-10 644.5,-30 664.5,-30 664.5,-10 644.5,-10"/>
<text text-anchor="start" x="668.2258" y="-15.4" font-family="sans-serif" font-size="14.00" fill="#000000"> &#160;Exports</text>
<g id="clust1" class="cluster">
<title>cluster_AccordionControlModule</title>
<polygon fill="none" stroke="#000000" stroke-dasharray="1,5" points="8,-70 8,-268 965,-268 965,-70 8,-70"/>
</g>
<g id="clust2" class="cluster">
<title>cluster_AccordionControlModule_declarations</title>
<polygon fill="none" stroke="#000000" points="24,-78 24,-130 951,-130 951,-78 24,-78"/>
</g>
<g id="clust8" class="cluster">
<title>cluster_AccordionControlModule_exports</title>
<polygon fill="none" stroke="#000000" points="16,-208 16,-260 957,-260 957,-208 16,-208"/>
</g>
<!-- AccordionControlComponent -->
<g id="node1" class="node">
<title>AccordionControlComponent</title>
<polygon fill="#ffffb3" stroke="#000000" points="942.6979,-122 759.3021,-122 759.3021,-86 942.6979,-86 942.6979,-122"/>
<text text-anchor="middle" x="851" y="-99.8" font-family="Times,serif" font-size="14.00" fill="#000000">AccordionControlComponent</text>
</g>
<!-- AccordionControlModule -->
<g id="node5" class="node">
<title>AccordionControlModule</title>
<polygon fill="#8dd3c7" stroke="#000000" points="460.9157,-187 457.9157,-191 436.9157,-191 433.9157,-187 299.0843,-187 299.0843,-151 460.9157,-151 460.9157,-187"/>
<text text-anchor="middle" x="380" y="-164.8" font-family="Times,serif" font-size="14.00" fill="#000000">AccordionControlModule</text>
</g>
<!-- AccordionControlComponent&#45;&gt;AccordionControlModule -->
<g id="edge1" class="edge">
<title>AccordionControlComponent&#45;&gt;AccordionControlModule</title>
<path fill="none" stroke="#000000" d="M882.6163,-122.2667C882.6163,-140.5552 882.6163,-166 882.6163,-166 882.6163,-166 470.754,-166 470.754,-166"/>
<polygon fill="#000000" stroke="#000000" points="470.754,-162.5001 460.754,-166 470.754,-169.5001 470.754,-162.5001"/>
</g>
<!-- AccordionControlPanelContentDirective -->
<g id="node2" class="node">
<title>AccordionControlPanelContentDirective</title>
<polygon fill="#ffffb3" stroke="#000000" points="741.8833,-122 496.1167,-122 496.1167,-86 741.8833,-86 741.8833,-122"/>
<text text-anchor="middle" x="619" y="-99.8" font-family="Times,serif" font-size="14.00" fill="#000000">AccordionControlPanelContentDirective</text>
</g>
<!-- AccordionControlPanelContentDirective&#45;&gt;AccordionControlModule -->
<g id="edge2" class="edge">
<title>AccordionControlPanelContentDirective&#45;&gt;AccordionControlModule</title>
<path fill="none" stroke="#000000" d="M659.8972,-122.0091C659.8972,-138.0494 659.8972,-159 659.8972,-159 659.8972,-159 470.9579,-159 470.9579,-159"/>
<polygon fill="#000000" stroke="#000000" points="470.9579,-155.5001 460.9579,-159 470.9578,-162.5001 470.9579,-155.5001"/>
</g>
<!-- AccordionControlPanelDirective -->
<g id="node3" class="node">
<title>AccordionControlPanelDirective</title>
<polygon fill="#ffffb3" stroke="#000000" points="478.5506,-122 277.4494,-122 277.4494,-86 478.5506,-86 478.5506,-122"/>
<text text-anchor="middle" x="378" y="-99.8" font-family="Times,serif" font-size="14.00" fill="#000000">AccordionControlPanelDirective</text>
</g>
<!-- AccordionControlPanelDirective&#45;&gt;AccordionControlModule -->
<g id="edge3" class="edge">
<title>AccordionControlPanelDirective&#45;&gt;AccordionControlModule</title>
<path fill="none" stroke="#000000" d="M380,-122.1061C380,-122.1061 380,-140.991 380,-140.991"/>
<polygon fill="#000000" stroke="#000000" points="376.5001,-140.9909 380,-150.991 383.5001,-140.991 376.5001,-140.9909"/>
</g>
<!-- AccordionControlPanelTitleDirective -->
<g id="node4" class="node">
<title>AccordionControlPanelTitleDirective</title>
<polygon fill="#ffffb3" stroke="#000000" points="259.9901,-122 32.0099,-122 32.0099,-86 259.9901,-86 259.9901,-122"/>
<text text-anchor="middle" x="146" y="-99.8" font-family="Times,serif" font-size="14.00" fill="#000000">AccordionControlPanelTitleDirective</text>
</g>
<!-- AccordionControlPanelTitleDirective&#45;&gt;AccordionControlModule -->
<g id="edge4" class="edge">
<title>AccordionControlPanelTitleDirective&#45;&gt;AccordionControlModule</title>
<path fill="none" stroke="#000000" d="M180.4149,-122.0225C180.4149,-139.3734 180.4149,-163 180.4149,-163 180.4149,-163 289.1088,-163 289.1088,-163"/>
<polygon fill="#000000" stroke="#000000" points="289.1089,-166.5001 299.1088,-163 289.1088,-159.5001 289.1089,-166.5001"/>
</g>
<!-- AccordionControlComponent  -->
<g id="node6" class="node">
<title>AccordionControlComponent </title>
<polygon fill="#fb8072" stroke="#000000" points="949.198,-252 762.802,-252 762.802,-216 949.198,-216 949.198,-252"/>
<text text-anchor="middle" x="856" y="-229.8" font-family="Times,serif" font-size="14.00" fill="#000000">AccordionControlComponent </text>
</g>
<!-- AccordionControlModule&#45;&gt;AccordionControlComponent  -->
<g id="edge5" class="edge">
<title>AccordionControlModule&#45;&gt;AccordionControlComponent </title>
<path fill="none" stroke="#000000" stroke-dasharray="5,2" d="M460.9284,-173C588.6563,-173 822.6337,-173 822.6337,-173 822.6337,-173 822.6337,-205.698 822.6337,-205.698"/>
<polygon fill="#000000" stroke="#000000" points="819.1338,-205.698 822.6337,-215.698 826.1338,-205.698 819.1338,-205.698"/>
</g>
<!-- AccordionControlPanelContentDirective  -->
<g id="node7" class="node">
<title>AccordionControlPanelContentDirective </title>
<polygon fill="#fb8072" stroke="#000000" points="744.383,-252 495.617,-252 495.617,-216 744.383,-216 744.383,-252"/>
<text text-anchor="middle" x="620" y="-229.8" font-family="Times,serif" font-size="14.00" fill="#000000">AccordionControlPanelContentDirective </text>
</g>
<!-- AccordionControlModule&#45;&gt;AccordionControlPanelContentDirective  -->
<g id="edge6" class="edge">
<title>AccordionControlModule&#45;&gt;AccordionControlPanelContentDirective </title>
<path fill="none" stroke="#000000" stroke-dasharray="5,2" d="M460.8617,-180C515.6393,-180 578.1028,-180 578.1028,-180 578.1028,-180 578.1028,-205.7181 578.1028,-205.7181"/>
<polygon fill="#000000" stroke="#000000" points="574.6029,-205.718 578.1028,-215.7181 581.6029,-205.7181 574.6029,-205.718"/>
</g>
<!-- AccordionControlPanelDirective  -->
<g id="node8" class="node">
<title>AccordionControlPanelDirective </title>
<polygon fill="#fb8072" stroke="#000000" points="477.0511,-252 272.9489,-252 272.9489,-216 477.0511,-216 477.0511,-252"/>
<text text-anchor="middle" x="375" y="-229.8" font-family="Times,serif" font-size="14.00" fill="#000000">AccordionControlPanelDirective </text>
</g>
<!-- AccordionControlModule&#45;&gt;AccordionControlPanelDirective  -->
<g id="edge7" class="edge">
<title>AccordionControlModule&#45;&gt;AccordionControlPanelDirective </title>
<path fill="none" stroke="#000000" stroke-dasharray="5,2" d="M380,-187.1061C380,-187.1061 380,-205.991 380,-205.991"/>
<polygon fill="#000000" stroke="#000000" points="376.5001,-205.9909 380,-215.991 383.5001,-205.991 376.5001,-205.9909"/>
</g>
<!-- AccordionControlPanelTitleDirective  -->
<g id="node9" class="node">
<title>AccordionControlPanelTitleDirective </title>
<polygon fill="#fb8072" stroke="#000000" points="254.4896,-252 23.5104,-252 23.5104,-216 254.4896,-216 254.4896,-252"/>
<text text-anchor="middle" x="139" y="-229.8" font-family="Times,serif" font-size="14.00" fill="#000000">AccordionControlPanelTitleDirective </text>
</g>
<!-- AccordionControlModule&#45;&gt;AccordionControlPanelTitleDirective  -->
<g id="edge8" class="edge">
<title>AccordionControlModule&#45;&gt;AccordionControlPanelTitleDirective </title>
<path fill="none" stroke="#000000" stroke-dasharray="5,2" d="M299.0023,-175C218.3051,-175 106.3351,-175 106.3351,-175 106.3351,-175 106.3351,-205.9775 106.3351,-205.9775"/>
<polygon fill="#000000" stroke="#000000" points="102.835,-205.9775 106.3351,-215.9775 109.835,-205.9774 102.835,-205.9775"/>
</g>
</g>
</svg>
