<?xml version="1.0" encoding="UTF-8" standalone="no"?>
<!DOCTYPE svg PUBLIC "-//W3C//DTD SVG 1.1//EN"
 "http://www.w3.org/Graphics/SVG/1.1/DTD/svg11.dtd">
<!-- Generated by graphviz version 2.40.1 (20161225.0304)
 -->
<!-- Title: dependencies Pages: 1 -->
<svg width="747pt" height="211pt"
 viewBox="0.00 0.00 747.00 211.00" xmlns="http://www.w3.org/2000/svg" xmlns:xlink="http://www.w3.org/1999/xlink">
<g id="graph0" class="graph" transform="scale(1 1) rotate(0) translate(4 207)">
<title>dependencies</title>
<polygon fill="#ffffff" stroke="transparent" points="-4,4 -4,-207 743,-207 743,4 -4,4"/>
<text text-anchor="start" x="348.5091" y="-42.4" font-family="sans-serif" font-weight="bold" font-size="14.00" fill="#000000">Legend</text>
<polygon fill="#ffffb3" stroke="transparent" points="135.5,-10 135.5,-30 155.5,-30 155.5,-10 135.5,-10"/>
<text text-anchor="start" x="159.129" y="-15.4" font-family="sans-serif" font-size="14.00" fill="#000000"> &#160;Declarations</text>
<polygon fill="#8dd3c7" stroke="transparent" points="248.5,-10 248.5,-30 268.5,-30 268.5,-10 248.5,-10"/>
<text text-anchor="start" x="272.2251" y="-15.4" font-family="sans-serif" font-size="14.00" fill="#000000"> &#160;Module</text>
<polygon fill="#80b1d3" stroke="transparent" points="334.5,-10 334.5,-30 354.5,-30 354.5,-10 334.5,-10"/>
<text text-anchor="start" x="358.2812" y="-15.4" font-family="sans-serif" font-size="14.00" fill="#000000"> &#160;Bootstrap</text>
<polygon fill="#fdb462" stroke="transparent" points="431.5,-10 431.5,-30 451.5,-30 451.5,-10 431.5,-10"/>
<text text-anchor="start" x="455.1732" y="-15.4" font-family="sans-serif" font-size="14.00" fill="#000000"> &#160;Providers</text>
<polygon fill="#fb8072" stroke="transparent" points="527.5,-10 527.5,-30 547.5,-30 547.5,-10 527.5,-10"/>
<text text-anchor="start" x="551.2258" y="-15.4" font-family="sans-serif" font-size="14.00" fill="#000000"> &#160;Exports</text>
<g id="clust1" class="cluster">
<title>cluster_DashboardModule</title>
<polygon fill="none" stroke="#000000" stroke-dasharray="1,5" points="8,-70 8,-195 731,-195 731,-70 8,-70"/>
</g>
<g id="clust2" class="cluster">
<title>cluster_DashboardModule_declarations</title>
<polygon fill="none" stroke="#000000" points="565,-78 565,-130 723,-130 723,-78 565,-78"/>
</g>
<g id="clust4" class="cluster">
<title>cluster_DashboardModule_imports</title>
<polygon fill="none" stroke="#000000" points="16,-78 16,-130 557,-130 557,-78 16,-78"/>
</g>
<!-- DashboardComponent -->
<g id="node1" class="node">
<title>DashboardComponent</title>
<polygon fill="#ffffb3" stroke="#000000" points="714.9734,-122 573.0266,-122 573.0266,-86 714.9734,-86 714.9734,-122"/>
<text text-anchor="middle" x="644" y="-99.8" font-family="Times,serif" font-size="14.00" fill="#000000">DashboardComponent</text>
</g>
<!-- DashboardModule -->
<g id="node2" class="node">
<title>DashboardModule</title>
<polygon fill="#8dd3c7" stroke="#000000" points="425.191,-187 422.191,-191 401.191,-191 398.191,-187 304.809,-187 304.809,-151 425.191,-151 425.191,-187"/>
<text text-anchor="middle" x="365" y="-164.8" font-family="Times,serif" font-size="14.00" fill="#000000">DashboardModule</text>
</g>
<!-- DashboardComponent&#45;&gt;DashboardModule -->
<g id="edge1" class="edge">
<title>DashboardComponent&#45;&gt;DashboardModule</title>
<path fill="none" stroke="#000000" d="M644,-122.2843C644,-143.3211 644,-175 644,-175 644,-175 435.1954,-175 435.1954,-175"/>
<polygon fill="#000000" stroke="#000000" points="435.1954,-171.5001 425.1954,-175 435.1953,-178.5001 435.1954,-171.5001"/>
</g>
<!-- LayoutModule -->
<g id="node3" class="node">
<title>LayoutModule</title>
<polygon fill="#8dd3c7" stroke="#000000" points="548.7078,-122 545.7078,-126 524.7078,-126 521.7078,-122 449.2922,-122 449.2922,-86 548.7078,-86 548.7078,-122"/>
<text text-anchor="middle" x="499" y="-99.8" font-family="Times,serif" font-size="14.00" fill="#000000">LayoutModule</text>
</g>
<!-- LayoutModule&#45;&gt;DashboardModule -->
<g id="edge2" class="edge">
<title>LayoutModule&#45;&gt;DashboardModule</title>
<path fill="none" stroke="#000000" d="M499,-122.0225C499,-139.3734 499,-163 499,-163 499,-163 435.336,-163 435.336,-163"/>
<polygon fill="#000000" stroke="#000000" points="435.336,-159.5001 425.336,-163 435.3359,-166.5001 435.336,-159.5001"/>
</g>
<!-- ListTimelineModule -->
<g id="node4" class="node">
<title>ListTimelineModule</title>
<polygon fill="#8dd3c7" stroke="#000000" points="430.8725,-122 427.8725,-126 406.8725,-126 403.8725,-122 299.1275,-122 299.1275,-86 430.8725,-86 430.8725,-122"/>
<text text-anchor="middle" x="365" y="-99.8" font-family="Times,serif" font-size="14.00" fill="#000000">ListTimelineModule</text>
</g>
<!-- ListTimelineModule&#45;&gt;DashboardModule -->
<g id="edge3" class="edge">
<title>ListTimelineModule&#45;&gt;DashboardModule</title>
<path fill="none" stroke="#000000" d="M365,-122.1061C365,-122.1061 365,-140.991 365,-140.991"/>
<polygon fill="#000000" stroke="#000000" points="361.5001,-140.9909 365,-150.991 368.5001,-140.991 361.5001,-140.9909"/>
</g>
<!-- PartialsModule -->
<g id="node5" class="node">
<title>PartialsModule</title>
<polygon fill="#8dd3c7" stroke="#000000" points="280.5396,-122 277.5396,-126 256.5396,-126 253.5396,-122 179.4604,-122 179.4604,-86 280.5396,-86 280.5396,-122"/>
<text text-anchor="middle" x="230" y="-99.8" font-family="Times,serif" font-size="14.00" fill="#000000">PartialsModule</text>
</g>
<!-- PartialsModule&#45;&gt;DashboardModule -->
<g id="edge4" class="edge">
<title>PartialsModule&#45;&gt;DashboardModule</title>
<path fill="none" stroke="#000000" d="M230,-122.0225C230,-139.3734 230,-163 230,-163 230,-163 294.6074,-163 294.6074,-163"/>
<polygon fill="#000000" stroke="#000000" points="294.6074,-166.5001 304.6074,-163 294.6074,-159.5001 294.6074,-166.5001"/>
</g>
<!-- WidgetChartsModule -->
<g id="node6" class="node">
<title>WidgetChartsModule</title>
<polygon fill="#8dd3c7" stroke="#000000" points="161.8075,-122 158.8075,-126 137.8075,-126 134.8075,-122 24.1925,-122 24.1925,-86 161.8075,-86 161.8075,-122"/>
<text text-anchor="middle" x="93" y="-99.8" font-family="Times,serif" font-size="14.00" fill="#000000">WidgetChartsModule</text>
</g>
<!-- WidgetChartsModule&#45;&gt;DashboardModule -->
<g id="edge5" class="edge">
<title>WidgetChartsModule&#45;&gt;DashboardModule</title>
<path fill="none" stroke="#000000" d="M93,-122.2843C93,-143.3211 93,-175 93,-175 93,-175 294.6344,-175 294.6344,-175"/>
<polygon fill="#000000" stroke="#000000" points="294.6344,-178.5001 304.6344,-175 294.6343,-171.5001 294.6344,-178.5001"/>
</g>
</g>
</svg>
