<?xml version="1.0" encoding="UTF-8" standalone="no"?>
<!DOCTYPE svg PUBLIC "-//W3C//DTD SVG 1.1//EN"
 "http://www.w3.org/Graphics/SVG/1.1/DTD/svg11.dtd">
<!-- Generated by graphviz version 2.40.1 (20161225.0304)
 -->
<!-- Title: dependencies Pages: 1 -->
<svg width="504pt" height="211pt"
 viewBox="0.00 0.00 504.00 211.00" xmlns="http://www.w3.org/2000/svg" xmlns:xlink="http://www.w3.org/1999/xlink">
<g id="graph0" class="graph" transform="scale(1 1) rotate(0) translate(4 207)">
<title>dependencies</title>
<polygon fill="#ffffff" stroke="transparent" points="-4,4 -4,-207 500,-207 500,4 -4,4"/>
<text text-anchor="start" x="227.0091" y="-42.4" font-family="sans-serif" font-weight="bold" font-size="14.00" fill="#000000">Legend</text>
<polygon fill="#ffffb3" stroke="transparent" points="14,-10 14,-30 34,-30 34,-10 14,-10"/>
<text text-anchor="start" x="37.629" y="-15.4" font-family="sans-serif" font-size="14.00" fill="#000000"> &#160;Declarations</text>
<polygon fill="#8dd3c7" stroke="transparent" points="127,-10 127,-30 147,-30 147,-10 127,-10"/>
<text text-anchor="start" x="150.7251" y="-15.4" font-family="sans-serif" font-size="14.00" fill="#000000"> &#160;Module</text>
<polygon fill="#80b1d3" stroke="transparent" points="213,-10 213,-30 233,-30 233,-10 213,-10"/>
<text text-anchor="start" x="236.7812" y="-15.4" font-family="sans-serif" font-size="14.00" fill="#000000"> &#160;Bootstrap</text>
<polygon fill="#fdb462" stroke="transparent" points="310,-10 310,-30 330,-30 330,-10 310,-10"/>
<text text-anchor="start" x="333.6732" y="-15.4" font-family="sans-serif" font-size="14.00" fill="#000000"> &#160;Providers</text>
<polygon fill="#fb8072" stroke="transparent" points="406,-10 406,-30 426,-30 426,-10 406,-10"/>
<text text-anchor="start" x="429.7258" y="-15.4" font-family="sans-serif" font-size="14.00" fill="#000000"> &#160;Exports</text>
<g id="clust1" class="cluster">
<title>cluster_BuilderModule</title>
<polygon fill="none" stroke="#000000" stroke-dasharray="1,5" points="48.5,-70 48.5,-195 447.5,-195 447.5,-70 48.5,-70"/>
</g>
<g id="clust2" class="cluster">
<title>cluster_BuilderModule_declarations</title>
<polygon fill="none" stroke="#000000" points="299.5,-78 299.5,-130 439.5,-130 439.5,-78 299.5,-78"/>
</g>
<g id="clust4" class="cluster">
<title>cluster_BuilderModule_imports</title>
<polygon fill="none" stroke="#000000" points="56.5,-78 56.5,-130 291.5,-130 291.5,-78 56.5,-78"/>
</g>
<!-- BuilderComponent -->
<g id="node1" class="node">
<title>BuilderComponent</title>
<polygon fill="#ffffb3" stroke="#000000" points="431.3258,-122 307.6742,-122 307.6742,-86 431.3258,-86 431.3258,-122"/>
<text text-anchor="middle" x="369.5" y="-99.8" font-family="Times,serif" font-size="14.00" fill="#000000">BuilderComponent</text>
</g>
<!-- BuilderModule -->
<g id="node2" class="node">
<title>BuilderModule</title>
<polygon fill="#8dd3c7" stroke="#000000" points="284.0438,-187 281.0438,-191 260.0438,-191 257.0438,-187 182.9562,-187 182.9562,-151 284.0438,-151 284.0438,-187"/>
<text text-anchor="middle" x="233.5" y="-164.8" font-family="Times,serif" font-size="14.00" fill="#000000">BuilderModule</text>
</g>
<!-- BuilderComponent&#45;&gt;BuilderModule -->
<g id="edge1" class="edge">
<title>BuilderComponent&#45;&gt;BuilderModule</title>
<path fill="none" stroke="#000000" d="M369.5,-122.1061C369.5,-141.3391 369.5,-169 369.5,-169 369.5,-169 294.1414,-169 294.1414,-169"/>
<polygon fill="#000000" stroke="#000000" points="294.1414,-165.5001 284.1414,-169 294.1413,-172.5001 294.1414,-165.5001"/>
</g>
<!-- LayoutModule -->
<g id="node3" class="node">
<title>LayoutModule</title>
<polygon fill="#8dd3c7" stroke="#000000" points="283.2078,-122 280.2078,-126 259.2078,-126 256.2078,-122 183.7922,-122 183.7922,-86 283.2078,-86 283.2078,-122"/>
<text text-anchor="middle" x="233.5" y="-99.8" font-family="Times,serif" font-size="14.00" fill="#000000">LayoutModule</text>
</g>
<!-- LayoutModule&#45;&gt;BuilderModule -->
<g id="edge2" class="edge">
<title>LayoutModule&#45;&gt;BuilderModule</title>
<path fill="none" stroke="#000000" d="M233.5,-122.1061C233.5,-122.1061 233.5,-140.991 233.5,-140.991"/>
<polygon fill="#000000" stroke="#000000" points="230.0001,-140.9909 233.5,-150.991 237.0001,-140.991 230.0001,-140.9909"/>
</g>
<!-- PartialsModule -->
<g id="node4" class="node">
<title>PartialsModule</title>
<polygon fill="#8dd3c7" stroke="#000000" points="166.0396,-122 163.0396,-126 142.0396,-126 139.0396,-122 64.9604,-122 64.9604,-86 166.0396,-86 166.0396,-122"/>
<text text-anchor="middle" x="115.5" y="-99.8" font-family="Times,serif" font-size="14.00" fill="#000000">PartialsModule</text>
</g>
<!-- PartialsModule&#45;&gt;BuilderModule -->
<g id="edge3" class="edge">
<title>PartialsModule&#45;&gt;BuilderModule</title>
<path fill="none" stroke="#000000" d="M115.5,-122.1061C115.5,-141.3391 115.5,-169 115.5,-169 115.5,-169 172.7726,-169 172.7726,-169"/>
<polygon fill="#000000" stroke="#000000" points="172.7726,-172.5001 182.7726,-169 172.7725,-165.5001 172.7726,-172.5001"/>
</g>
</g>
</svg>
