<?xml version="1.0" encoding="UTF-8" standalone="no"?>
<!DOCTYPE svg PUBLIC "-//W3C//DTD SVG 1.1//EN"
 "http://www.w3.org/Graphics/SVG/1.1/DTD/svg11.dtd">
<!-- Generated by graphviz version 2.40.1 (20161225.0304)
 -->
<!-- Title: dependencies Pages: 1 -->
<svg width="1209pt" height="211pt"
 viewBox="0.00 0.00 1209.00 211.00" xmlns="http://www.w3.org/2000/svg" xmlns:xlink="http://www.w3.org/1999/xlink">
<g id="graph0" class="graph" transform="scale(1 1) rotate(0) translate(4 207)">
<title>dependencies</title>
<polygon fill="#ffffff" stroke="transparent" points="-4,4 -4,-207 1205,-207 1205,4 -4,4"/>
<text text-anchor="start" x="579.5091" y="-42.4" font-family="sans-serif" font-weight="bold" font-size="14.00" fill="#000000">Legend</text>
<polygon fill="#ffffb3" stroke="transparent" points="366.5,-10 366.5,-30 386.5,-30 386.5,-10 366.5,-10"/>
<text text-anchor="start" x="390.129" y="-15.4" font-family="sans-serif" font-size="14.00" fill="#000000"> &#160;Declarations</text>
<polygon fill="#8dd3c7" stroke="transparent" points="479.5,-10 479.5,-30 499.5,-30 499.5,-10 479.5,-10"/>
<text text-anchor="start" x="503.2251" y="-15.4" font-family="sans-serif" font-size="14.00" fill="#000000"> &#160;Module</text>
<polygon fill="#80b1d3" stroke="transparent" points="565.5,-10 565.5,-30 585.5,-30 585.5,-10 565.5,-10"/>
<text text-anchor="start" x="589.2812" y="-15.4" font-family="sans-serif" font-size="14.00" fill="#000000"> &#160;Bootstrap</text>
<polygon fill="#fdb462" stroke="transparent" points="662.5,-10 662.5,-30 682.5,-30 682.5,-10 662.5,-10"/>
<text text-anchor="start" x="686.1732" y="-15.4" font-family="sans-serif" font-size="14.00" fill="#000000"> &#160;Providers</text>
<polygon fill="#fb8072" stroke="transparent" points="758.5,-10 758.5,-30 778.5,-30 778.5,-10 758.5,-10"/>
<text text-anchor="start" x="782.2258" y="-15.4" font-family="sans-serif" font-size="14.00" fill="#000000"> &#160;Exports</text>
<g id="clust1" class="cluster">
<title>cluster_DayanaModule</title>
<polygon fill="none" stroke="#000000" stroke-dasharray="1,5" points="8,-70 8,-195 1193,-195 1193,-70 8,-70"/>
</g>
<g id="clust2" class="cluster">
<title>cluster_DayanaModule_declarations</title>
<polygon fill="none" stroke="#000000" points="597,-78 597,-130 1185,-130 1185,-78 597,-78"/>
</g>
<g id="clust7" class="cluster">
<title>cluster_DayanaModule_imports</title>
<polygon fill="none" stroke="#000000" points="16,-78 16,-130 589,-130 589,-78 16,-78"/>
</g>
<!-- Dayana1Component -->
<g id="node1" class="node">
<title>Dayana1Component</title>
<polygon fill="#ffffb3" stroke="#000000" points="1176.5828,-122 1045.4172,-122 1045.4172,-86 1176.5828,-86 1176.5828,-122"/>
<text text-anchor="middle" x="1111" y="-99.8" font-family="Times,serif" font-size="14.00" fill="#000000">Dayana1Component</text>
</g>
<!-- DayanaModule -->
<g id="node5" class="node">
<title>DayanaModule</title>
<polygon fill="#8dd3c7" stroke="#000000" points="634.3006,-187 631.3006,-191 610.3006,-191 607.3006,-187 531.6994,-187 531.6994,-151 634.3006,-151 634.3006,-187"/>
<text text-anchor="middle" x="583" y="-164.8" font-family="Times,serif" font-size="14.00" fill="#000000">DayanaModule</text>
</g>
<!-- Dayana1Component&#45;&gt;DayanaModule -->
<g id="edge1" class="edge">
<title>Dayana1Component&#45;&gt;DayanaModule</title>
<path fill="none" stroke="#000000" d="M1111,-122.2921C1111,-144.2057 1111,-178 1111,-178 1111,-178 644.5882,-178 644.5882,-178"/>
<polygon fill="#000000" stroke="#000000" points="644.5883,-174.5001 634.5882,-178 644.5882,-181.5001 644.5883,-174.5001"/>
</g>
<!-- Dayana2Component -->
<g id="node2" class="node">
<title>Dayana2Component</title>
<polygon fill="#ffffb3" stroke="#000000" points="1027.5828,-122 896.4172,-122 896.4172,-86 1027.5828,-86 1027.5828,-122"/>
<text text-anchor="middle" x="962" y="-99.8" font-family="Times,serif" font-size="14.00" fill="#000000">Dayana2Component</text>
</g>
<!-- Dayana2Component&#45;&gt;DayanaModule -->
<g id="edge2" class="edge">
<title>Dayana2Component&#45;&gt;DayanaModule</title>
<path fill="none" stroke="#000000" d="M962,-122.1061C962,-141.3391 962,-169 962,-169 962,-169 644.5081,-169 644.5081,-169"/>
<polygon fill="#000000" stroke="#000000" points="644.5081,-165.5001 634.5081,-169 644.508,-172.5001 644.5081,-165.5001"/>
</g>
<!-- Dayana3Component -->
<g id="node3" class="node">
<title>Dayana3Component</title>
<polygon fill="#ffffb3" stroke="#000000" points="878.5828,-122 747.4172,-122 747.4172,-86 878.5828,-86 878.5828,-122"/>
<text text-anchor="middle" x="813" y="-99.8" font-family="Times,serif" font-size="14.00" fill="#000000">Dayana3Component</text>
</g>
<!-- Dayana3Component&#45;&gt;DayanaModule -->
<g id="edge3" class="edge">
<title>Dayana3Component&#45;&gt;DayanaModule</title>
<path fill="none" stroke="#000000" d="M813,-122.027C813,-138.3976 813,-160 813,-160 813,-160 644.3302,-160 644.3302,-160"/>
<polygon fill="#000000" stroke="#000000" points="644.3303,-156.5001 634.3302,-160 644.3302,-163.5001 644.3303,-156.5001"/>
</g>
<!-- DayanaComponent -->
<g id="node4" class="node">
<title>DayanaComponent</title>
<polygon fill="#ffffb3" stroke="#000000" points="729.0828,-122 604.9172,-122 604.9172,-86 729.0828,-86 729.0828,-122"/>
<text text-anchor="middle" x="667" y="-99.8" font-family="Times,serif" font-size="14.00" fill="#000000">DayanaComponent</text>
</g>
<!-- DayanaComponent&#45;&gt;DayanaModule -->
<g id="edge4" class="edge">
<title>DayanaComponent&#45;&gt;DayanaModule</title>
<path fill="none" stroke="#000000" d="M619.5544,-122.1061C619.5544,-122.1061 619.5544,-140.991 619.5544,-140.991"/>
<polygon fill="#000000" stroke="#000000" points="616.0544,-140.9909 619.5544,-150.991 623.0544,-140.991 616.0544,-140.9909"/>
</g>
<!-- AccordionControlModule -->
<g id="node6" class="node">
<title>AccordionControlModule</title>
<polygon fill="#8dd3c7" stroke="#000000" points="580.9157,-122 577.9157,-126 556.9157,-126 553.9157,-122 419.0843,-122 419.0843,-86 580.9157,-86 580.9157,-122"/>
<text text-anchor="middle" x="500" y="-99.8" font-family="Times,serif" font-size="14.00" fill="#000000">AccordionControlModule</text>
</g>
<!-- AccordionControlModule&#45;&gt;DayanaModule -->
<g id="edge5" class="edge">
<title>AccordionControlModule&#45;&gt;DayanaModule</title>
<path fill="none" stroke="#000000" d="M556.2787,-122.1061C556.2787,-122.1061 556.2787,-140.991 556.2787,-140.991"/>
<polygon fill="#000000" stroke="#000000" points="552.7788,-140.9909 556.2787,-150.991 559.7788,-140.991 552.7788,-140.9909"/>
</g>
<!-- CoreModule -->
<g id="node7" class="node">
<title>CoreModule</title>
<polygon fill="#8dd3c7" stroke="#000000" points="401.2619,-122 398.2619,-126 377.2619,-126 374.2619,-122 314.7381,-122 314.7381,-86 401.2619,-86 401.2619,-122"/>
<text text-anchor="middle" x="358" y="-99.8" font-family="Times,serif" font-size="14.00" fill="#000000">CoreModule</text>
</g>
<!-- CoreModule&#45;&gt;DayanaModule -->
<g id="edge6" class="edge">
<title>CoreModule&#45;&gt;DayanaModule</title>
<path fill="none" stroke="#000000" d="M358,-122.027C358,-138.3976 358,-160 358,-160 358,-160 521.6625,-160 521.6625,-160"/>
<polygon fill="#000000" stroke="#000000" points="521.6625,-163.5001 531.6625,-160 521.6624,-156.5001 521.6625,-163.5001"/>
</g>
<!-- MaterialPreviewModule -->
<g id="node8" class="node">
<title>MaterialPreviewModule</title>
<polygon fill="#8dd3c7" stroke="#000000" points="296.3403,-122 293.3403,-126 272.3403,-126 269.3403,-122 143.6597,-122 143.6597,-86 296.3403,-86 296.3403,-122"/>
<text text-anchor="middle" x="220" y="-99.8" font-family="Times,serif" font-size="14.00" fill="#000000">MaterialPreviewModule</text>
</g>
<!-- MaterialPreviewModule&#45;&gt;DayanaModule -->
<g id="edge7" class="edge">
<title>MaterialPreviewModule&#45;&gt;DayanaModule</title>
<path fill="none" stroke="#000000" d="M220,-122.1061C220,-141.3391 220,-169 220,-169 220,-169 521.7609,-169 521.7609,-169"/>
<polygon fill="#000000" stroke="#000000" points="521.7609,-172.5001 531.7609,-169 521.7608,-165.5001 521.7609,-172.5001"/>
</g>
<!-- PartialsModule -->
<g id="node9" class="node">
<title>PartialsModule</title>
<polygon fill="#8dd3c7" stroke="#000000" points="125.5396,-122 122.5396,-126 101.5396,-126 98.5396,-122 24.4604,-122 24.4604,-86 125.5396,-86 125.5396,-122"/>
<text text-anchor="middle" x="75" y="-99.8" font-family="Times,serif" font-size="14.00" fill="#000000">PartialsModule</text>
</g>
<!-- PartialsModule&#45;&gt;DayanaModule -->
<g id="edge8" class="edge">
<title>PartialsModule&#45;&gt;DayanaModule</title>
<path fill="none" stroke="#000000" d="M75,-122.2921C75,-144.2057 75,-178 75,-178 75,-178 521.4946,-178 521.4946,-178"/>
<polygon fill="#000000" stroke="#000000" points="521.4947,-181.5001 531.4946,-178 521.4946,-174.5001 521.4947,-181.5001"/>
</g>
</g>
</svg>
