<?xml version="1.0" encoding="UTF-8" standalone="no"?>
<!DOCTYPE svg PUBLIC "-//W3C//DTD SVG 1.1//EN"
 "http://www.w3.org/Graphics/SVG/1.1/DTD/svg11.dtd">
<!-- Generated by graphviz version 2.40.1 (20161225.0304)
 -->
<!-- Title: dependencies Pages: 1 -->
<svg width="965pt" height="211pt"
 viewBox="0.00 0.00 965.00 211.00" xmlns="http://www.w3.org/2000/svg" xmlns:xlink="http://www.w3.org/1999/xlink">
<g id="graph0" class="graph" transform="scale(1 1) rotate(0) translate(4 207)">
<title>dependencies</title>
<polygon fill="#ffffff" stroke="transparent" points="-4,4 -4,-207 961,-207 961,4 -4,4"/>
<text text-anchor="start" x="457.5091" y="-42.4" font-family="sans-serif" font-weight="bold" font-size="14.00" fill="#000000">Legend</text>
<polygon fill="#ffffb3" stroke="transparent" points="244.5,-10 244.5,-30 264.5,-30 264.5,-10 244.5,-10"/>
<text text-anchor="start" x="268.129" y="-15.4" font-family="sans-serif" font-size="14.00" fill="#000000"> &#160;Declarations</text>
<polygon fill="#8dd3c7" stroke="transparent" points="357.5,-10 357.5,-30 377.5,-30 377.5,-10 357.5,-10"/>
<text text-anchor="start" x="381.2251" y="-15.4" font-family="sans-serif" font-size="14.00" fill="#000000"> &#160;Module</text>
<polygon fill="#80b1d3" stroke="transparent" points="443.5,-10 443.5,-30 463.5,-30 463.5,-10 443.5,-10"/>
<text text-anchor="start" x="467.2812" y="-15.4" font-family="sans-serif" font-size="14.00" fill="#000000"> &#160;Bootstrap</text>
<polygon fill="#fdb462" stroke="transparent" points="540.5,-10 540.5,-30 560.5,-30 560.5,-10 540.5,-10"/>
<text text-anchor="start" x="564.1732" y="-15.4" font-family="sans-serif" font-size="14.00" fill="#000000"> &#160;Providers</text>
<polygon fill="#fb8072" stroke="transparent" points="636.5,-10 636.5,-30 656.5,-30 656.5,-10 636.5,-10"/>
<text text-anchor="start" x="660.2258" y="-15.4" font-family="sans-serif" font-size="14.00" fill="#000000"> &#160;Exports</text>
<g id="clust1" class="cluster">
<title>cluster_AuthModule</title>
<polygon fill="none" stroke="#000000" stroke-dasharray="1,5" points="8,-70 8,-195 949,-195 949,-70 8,-70"/>
</g>
<g id="clust2" class="cluster">
<title>cluster_AuthModule_declarations</title>
<polygon fill="none" stroke="#000000" points="182,-78 182,-130 941,-130 941,-78 182,-78"/>
</g>
<g id="clust8" class="cluster">
<title>cluster_AuthModule_imports</title>
<polygon fill="none" stroke="#000000" points="16,-78 16,-130 174,-130 174,-78 16,-78"/>
</g>
<!-- AuthComponent -->
<g id="node1" class="node">
<title>AuthComponent</title>
<polygon fill="#ffffb3" stroke="#000000" points="932.8301,-122 823.1699,-122 823.1699,-86 932.8301,-86 932.8301,-122"/>
<text text-anchor="middle" x="878" y="-99.8" font-family="Times,serif" font-size="14.00" fill="#000000">AuthComponent</text>
</g>
<!-- AuthModule -->
<g id="node6" class="node">
<title>AuthModule</title>
<polygon fill="#8dd3c7" stroke="#000000" points="517.5482,-187 514.5482,-191 493.5482,-191 490.5482,-187 430.4518,-187 430.4518,-151 517.5482,-151 517.5482,-187"/>
<text text-anchor="middle" x="474" y="-164.8" font-family="Times,serif" font-size="14.00" fill="#000000">AuthModule</text>
</g>
<!-- AuthComponent&#45;&gt;AuthModule -->
<g id="edge1" class="edge">
<title>AuthComponent&#45;&gt;AuthModule</title>
<path fill="none" stroke="#000000" d="M878,-122.2843C878,-143.3211 878,-175 878,-175 878,-175 527.6189,-175 527.6189,-175"/>
<polygon fill="#000000" stroke="#000000" points="527.619,-171.5001 517.6189,-175 527.6189,-178.5001 527.619,-171.5001"/>
</g>
<!-- AuthNoticeComponent -->
<g id="node2" class="node">
<title>AuthNoticeComponent</title>
<polygon fill="#ffffb3" stroke="#000000" points="805.147,-122 658.853,-122 658.853,-86 805.147,-86 805.147,-122"/>
<text text-anchor="middle" x="732" y="-99.8" font-family="Times,serif" font-size="14.00" fill="#000000">AuthNoticeComponent</text>
</g>
<!-- AuthNoticeComponent&#45;&gt;AuthModule -->
<g id="edge2" class="edge">
<title>AuthNoticeComponent&#45;&gt;AuthModule</title>
<path fill="none" stroke="#000000" d="M732,-122.0225C732,-139.3734 732,-163 732,-163 732,-163 527.7662,-163 527.7662,-163"/>
<polygon fill="#000000" stroke="#000000" points="527.7662,-159.5001 517.7662,-163 527.7661,-166.5001 527.7662,-159.5001"/>
</g>
<!-- ForgotPasswordComponent -->
<g id="node3" class="node">
<title>ForgotPasswordComponent</title>
<polygon fill="#ffffb3" stroke="#000000" points="641.3201,-122 468.6799,-122 468.6799,-86 641.3201,-86 641.3201,-122"/>
<text text-anchor="middle" x="555" y="-99.8" font-family="Times,serif" font-size="14.00" fill="#000000">ForgotPasswordComponent</text>
</g>
<!-- ForgotPasswordComponent&#45;&gt;AuthModule -->
<g id="edge3" class="edge">
<title>ForgotPasswordComponent&#45;&gt;AuthModule</title>
<path fill="none" stroke="#000000" d="M493.3068,-122.1061C493.3068,-122.1061 493.3068,-140.991 493.3068,-140.991"/>
<polygon fill="#000000" stroke="#000000" points="489.8069,-140.9909 493.3068,-150.991 496.8069,-140.991 489.8069,-140.9909"/>
</g>
<!-- LoginComponent -->
<g id="node4" class="node">
<title>LoginComponent</title>
<polygon fill="#ffffb3" stroke="#000000" points="450.2758,-122 335.7242,-122 335.7242,-86 450.2758,-86 450.2758,-122"/>
<text text-anchor="middle" x="393" y="-99.8" font-family="Times,serif" font-size="14.00" fill="#000000">LoginComponent</text>
</g>
<!-- LoginComponent&#45;&gt;AuthModule -->
<g id="edge4" class="edge">
<title>LoginComponent&#45;&gt;AuthModule</title>
<path fill="none" stroke="#000000" d="M440.3072,-122.1061C440.3072,-122.1061 440.3072,-140.991 440.3072,-140.991"/>
<polygon fill="#000000" stroke="#000000" points="436.8072,-140.9909 440.3072,-150.991 443.8072,-140.991 436.8072,-140.9909"/>
</g>
<!-- RegisterComponent -->
<g id="node5" class="node">
<title>RegisterComponent</title>
<polygon fill="#ffffb3" stroke="#000000" points="317.9846,-122 190.0154,-122 190.0154,-86 317.9846,-86 317.9846,-122"/>
<text text-anchor="middle" x="254" y="-99.8" font-family="Times,serif" font-size="14.00" fill="#000000">RegisterComponent</text>
</g>
<!-- RegisterComponent&#45;&gt;AuthModule -->
<g id="edge5" class="edge">
<title>RegisterComponent&#45;&gt;AuthModule</title>
<path fill="none" stroke="#000000" d="M254,-122.0225C254,-139.3734 254,-163 254,-163 254,-163 420.272,-163 420.272,-163"/>
<polygon fill="#000000" stroke="#000000" points="420.2721,-166.5001 430.272,-163 420.272,-159.5001 420.2721,-166.5001"/>
</g>
<!-- SpinnerButtonModule -->
<g id="node7" class="node">
<title>SpinnerButtonModule</title>
<polygon fill="#8dd3c7" stroke="#000000" points="165.7162,-122 162.7162,-126 141.7162,-126 138.7162,-122 24.2838,-122 24.2838,-86 165.7162,-86 165.7162,-122"/>
<text text-anchor="middle" x="95" y="-99.8" font-family="Times,serif" font-size="14.00" fill="#000000">SpinnerButtonModule</text>
</g>
<!-- SpinnerButtonModule&#45;&gt;AuthModule -->
<g id="edge6" class="edge">
<title>SpinnerButtonModule&#45;&gt;AuthModule</title>
<path fill="none" stroke="#000000" d="M95,-122.2843C95,-143.3211 95,-175 95,-175 95,-175 420.1536,-175 420.1536,-175"/>
<polygon fill="#000000" stroke="#000000" points="420.1537,-178.5001 430.1536,-175 420.1536,-171.5001 420.1537,-178.5001"/>
</g>
</g>
</svg>
