<?xml version="1.0" encoding="UTF-8" standalone="no"?>
<!DOCTYPE svg PUBLIC "-//W3C//DTD SVG 1.1//EN"
 "http://www.w3.org/Graphics/SVG/1.1/DTD/svg11.dtd">
<!-- Generated by graphviz version 2.40.1 (20161225.0304)
 -->
<!-- Title: dependencies Pages: 1 -->
<svg width="1335pt" height="211pt"
 viewBox="0.00 0.00 1335.00 211.00" xmlns="http://www.w3.org/2000/svg" xmlns:xlink="http://www.w3.org/1999/xlink">
<g id="graph0" class="graph" transform="scale(1 1) rotate(0) translate(4 207)">
<title>dependencies</title>
<polygon fill="#ffffff" stroke="transparent" points="-4,4 -4,-207 1331,-207 1331,4 -4,4"/>
<text text-anchor="start" x="642.5091" y="-42.4" font-family="sans-serif" font-weight="bold" font-size="14.00" fill="#000000">Legend</text>
<polygon fill="#ffffb3" stroke="transparent" points="429.5,-10 429.5,-30 449.5,-30 449.5,-10 429.5,-10"/>
<text text-anchor="start" x="453.129" y="-15.4" font-family="sans-serif" font-size="14.00" fill="#000000"> &#160;Declarations</text>
<polygon fill="#8dd3c7" stroke="transparent" points="542.5,-10 542.5,-30 562.5,-30 562.5,-10 542.5,-10"/>
<text text-anchor="start" x="566.2251" y="-15.4" font-family="sans-serif" font-size="14.00" fill="#000000"> &#160;Module</text>
<polygon fill="#80b1d3" stroke="transparent" points="628.5,-10 628.5,-30 648.5,-30 648.5,-10 628.5,-10"/>
<text text-anchor="start" x="652.2812" y="-15.4" font-family="sans-serif" font-size="14.00" fill="#000000"> &#160;Bootstrap</text>
<polygon fill="#fdb462" stroke="transparent" points="725.5,-10 725.5,-30 745.5,-30 745.5,-10 725.5,-10"/>
<text text-anchor="start" x="749.1732" y="-15.4" font-family="sans-serif" font-size="14.00" fill="#000000"> &#160;Providers</text>
<polygon fill="#fb8072" stroke="transparent" points="821.5,-10 821.5,-30 841.5,-30 841.5,-10 821.5,-10"/>
<text text-anchor="start" x="845.2258" y="-15.4" font-family="sans-serif" font-size="14.00" fill="#000000"> &#160;Exports</text>
<g id="clust1" class="cluster">
<title>cluster_PagesModule</title>
<polygon fill="none" stroke="#000000" stroke-dasharray="1,5" points="8,-70 8,-195 1319,-195 1319,-70 8,-70"/>
</g>
<g id="clust2" class="cluster">
<title>cluster_PagesModule_declarations</title>
<polygon fill="none" stroke="#000000" points="623,-78 623,-130 1311,-130 1311,-78 623,-78"/>
</g>
<g id="clust8" class="cluster">
<title>cluster_PagesModule_imports</title>
<polygon fill="none" stroke="#000000" points="16,-78 16,-130 615,-130 615,-78 16,-78"/>
</g>
<!-- ActionComponent -->
<g id="node1" class="node">
<title>ActionComponent</title>
<polygon fill="#ffffb3" stroke="#000000" points="1302.9356,-122 1183.0644,-122 1183.0644,-86 1302.9356,-86 1302.9356,-122"/>
<text text-anchor="middle" x="1243" y="-99.8" font-family="Times,serif" font-size="14.00" fill="#000000">ActionComponent</text>
</g>
<!-- PagesModule -->
<g id="node6" class="node">
<title>PagesModule</title>
<polygon fill="#8dd3c7" stroke="#000000" points="673.2064,-187 670.2064,-191 649.2064,-191 646.2064,-187 580.7936,-187 580.7936,-151 673.2064,-151 673.2064,-187"/>
<text text-anchor="middle" x="627" y="-164.8" font-family="Times,serif" font-size="14.00" fill="#000000">PagesModule</text>
</g>
<!-- ActionComponent&#45;&gt;PagesModule -->
<g id="edge1" class="edge">
<title>ActionComponent&#45;&gt;PagesModule</title>
<path fill="none" stroke="#000000" d="M1243,-122.0109C1243,-144.4852 1243,-180 1243,-180 1243,-180 683.3001,-180 683.3001,-180"/>
<polygon fill="#000000" stroke="#000000" points="683.3002,-176.5001 673.3001,-180 683.3001,-183.5001 683.3002,-176.5001"/>
</g>
<!-- ChatComponent -->
<g id="node2" class="node">
<title>ChatComponent</title>
<polygon fill="#ffffb3" stroke="#000000" points="1164.7744,-122 1057.2256,-122 1057.2256,-86 1164.7744,-86 1164.7744,-122"/>
<text text-anchor="middle" x="1111" y="-99.8" font-family="Times,serif" font-size="14.00" fill="#000000">ChatComponent</text>
</g>
<!-- ChatComponent&#45;&gt;PagesModule -->
<g id="edge2" class="edge">
<title>ChatComponent&#45;&gt;PagesModule</title>
<path fill="none" stroke="#000000" d="M1111,-122.1289C1111,-142.5724 1111,-173 1111,-173 1111,-173 683.408,-173 683.408,-173"/>
<polygon fill="#000000" stroke="#000000" points="683.408,-169.5001 673.408,-173 683.4079,-176.5001 683.408,-169.5001"/>
</g>
<!-- ErrorPageComponent -->
<g id="node3" class="node">
<title>ErrorPageComponent</title>
<polygon fill="#ffffb3" stroke="#000000" points="1039.0786,-122 900.9214,-122 900.9214,-86 1039.0786,-86 1039.0786,-122"/>
<text text-anchor="middle" x="970" y="-99.8" font-family="Times,serif" font-size="14.00" fill="#000000">ErrorPageComponent</text>
</g>
<!-- ErrorPageComponent&#45;&gt;PagesModule -->
<g id="edge3" class="edge">
<title>ErrorPageComponent&#45;&gt;PagesModule</title>
<path fill="none" stroke="#000000" d="M970,-122.2667C970,-140.5552 970,-166 970,-166 970,-166 683.2585,-166 683.2585,-166"/>
<polygon fill="#000000" stroke="#000000" points="683.2585,-162.5001 673.2585,-166 683.2585,-169.5001 683.2585,-162.5001"/>
</g>
<!-- PagesComponent -->
<g id="node4" class="node">
<title>PagesComponent</title>
<polygon fill="#ffffb3" stroke="#000000" points="882.9888,-122 769.0112,-122 769.0112,-86 882.9888,-86 882.9888,-122"/>
<text text-anchor="middle" x="826" y="-99.8" font-family="Times,serif" font-size="14.00" fill="#000000">PagesComponent</text>
</g>
<!-- PagesComponent&#45;&gt;PagesModule -->
<g id="edge4" class="edge">
<title>PagesComponent&#45;&gt;PagesModule</title>
<path fill="none" stroke="#000000" d="M826,-122.0091C826,-138.0494 826,-159 826,-159 826,-159 683.1548,-159 683.1548,-159"/>
<polygon fill="#000000" stroke="#000000" points="683.1548,-155.5001 673.1548,-159 683.1548,-162.5001 683.1548,-155.5001"/>
</g>
<!-- ProfileComponent -->
<g id="node5" class="node">
<title>ProfileComponent</title>
<polygon fill="#ffffb3" stroke="#000000" points="750.9328,-122 631.0672,-122 631.0672,-86 750.9328,-86 750.9328,-122"/>
<text text-anchor="middle" x="691" y="-99.8" font-family="Times,serif" font-size="14.00" fill="#000000">ProfileComponent</text>
</g>
<!-- ProfileComponent&#45;&gt;PagesModule -->
<g id="edge5" class="edge">
<title>ProfileComponent&#45;&gt;PagesModule</title>
<path fill="none" stroke="#000000" d="M652.1936,-122.1061C652.1936,-122.1061 652.1936,-140.991 652.1936,-140.991"/>
<polygon fill="#000000" stroke="#000000" points="648.6936,-140.9909 652.1936,-150.991 655.6936,-140.991 648.6936,-140.9909"/>
</g>
<!-- CoreModule -->
<g id="node7" class="node">
<title>CoreModule</title>
<polygon fill="#8dd3c7" stroke="#000000" points="607.2619,-122 604.2619,-126 583.2619,-126 580.2619,-122 520.7381,-122 520.7381,-86 607.2619,-86 607.2619,-122"/>
<text text-anchor="middle" x="564" y="-99.8" font-family="Times,serif" font-size="14.00" fill="#000000">CoreModule</text>
</g>
<!-- CoreModule&#45;&gt;PagesModule -->
<g id="edge6" class="edge">
<title>CoreModule&#45;&gt;PagesModule</title>
<path fill="none" stroke="#000000" d="M594.1389,-122.1061C594.1389,-122.1061 594.1389,-140.991 594.1389,-140.991"/>
<polygon fill="#000000" stroke="#000000" points="590.6389,-140.9909 594.1389,-150.991 597.6389,-140.991 590.6389,-140.9909"/>
</g>
<!-- LayoutModule -->
<g id="node8" class="node">
<title>LayoutModule</title>
<polygon fill="#8dd3c7" stroke="#000000" points="502.7078,-122 499.7078,-126 478.7078,-126 475.7078,-122 403.2922,-122 403.2922,-86 502.7078,-86 502.7078,-122"/>
<text text-anchor="middle" x="453" y="-99.8" font-family="Times,serif" font-size="14.00" fill="#000000">LayoutModule</text>
</g>
<!-- LayoutModule&#45;&gt;PagesModule -->
<g id="edge7" class="edge">
<title>LayoutModule&#45;&gt;PagesModule</title>
<path fill="none" stroke="#000000" d="M453,-122.0091C453,-138.0494 453,-159 453,-159 453,-159 570.828,-159 570.828,-159"/>
<polygon fill="#000000" stroke="#000000" points="570.8281,-162.5001 580.828,-159 570.828,-155.5001 570.8281,-162.5001"/>
</g>
<!-- MailModule -->
<g id="node9" class="node">
<title>MailModule</title>
<polygon fill="#8dd3c7" stroke="#000000" points="384.9902,-122 381.9902,-126 360.9902,-126 357.9902,-122 299.0098,-122 299.0098,-86 384.9902,-86 384.9902,-122"/>
<text text-anchor="middle" x="342" y="-99.8" font-family="Times,serif" font-size="14.00" fill="#000000">MailModule</text>
</g>
<!-- MailModule&#45;&gt;PagesModule -->
<g id="edge8" class="edge">
<title>MailModule&#45;&gt;PagesModule</title>
<path fill="none" stroke="#000000" d="M342,-122.2667C342,-140.5552 342,-166 342,-166 342,-166 570.8931,-166 570.8931,-166"/>
<polygon fill="#000000" stroke="#000000" points="570.8931,-169.5001 580.8931,-166 570.893,-162.5001 570.8931,-169.5001"/>
</g>
<!-- PagesRoutingModule -->
<g id="node10" class="node">
<title>PagesRoutingModule</title>
<polygon fill="#8dd3c7" stroke="#000000" points="280.8244,-122 277.8244,-126 256.8244,-126 253.8244,-122 143.1756,-122 143.1756,-86 280.8244,-86 280.8244,-122"/>
<text text-anchor="middle" x="212" y="-99.8" font-family="Times,serif" font-size="14.00" fill="#000000">PagesRoutingModule</text>
</g>
<!-- PagesRoutingModule&#45;&gt;PagesModule -->
<g id="edge9" class="edge">
<title>PagesRoutingModule&#45;&gt;PagesModule</title>
<path fill="none" stroke="#000000" d="M212,-122.1289C212,-142.5724 212,-173 212,-173 212,-173 570.6022,-173 570.6022,-173"/>
<polygon fill="#000000" stroke="#000000" points="570.6022,-176.5001 580.6022,-173 570.6022,-169.5001 570.6022,-176.5001"/>
</g>
<!-- PartialsModule -->
<g id="node11" class="node">
<title>PartialsModule</title>
<polygon fill="#8dd3c7" stroke="#000000" points="125.5396,-122 122.5396,-126 101.5396,-126 98.5396,-122 24.4604,-122 24.4604,-86 125.5396,-86 125.5396,-122"/>
<text text-anchor="middle" x="75" y="-99.8" font-family="Times,serif" font-size="14.00" fill="#000000">PartialsModule</text>
</g>
<!-- PartialsModule&#45;&gt;PagesModule -->
<g id="edge10" class="edge">
<title>PartialsModule&#45;&gt;PagesModule</title>
<path fill="none" stroke="#000000" d="M75,-122.0109C75,-144.4852 75,-180 75,-180 75,-180 570.8862,-180 570.8862,-180"/>
<polygon fill="#000000" stroke="#000000" points="570.8863,-183.5001 580.8862,-180 570.8862,-176.5001 570.8863,-183.5001"/>
</g>
</g>
</svg>
