<?xml version="1.0" encoding="UTF-8" standalone="no"?>
<!DOCTYPE svg PUBLIC "-//W3C//DTD SVG 1.1//EN"
 "http://www.w3.org/Graphics/SVG/1.1/DTD/svg11.dtd">
<!-- Generated by graphviz version 2.40.1 (20161225.0304)
 -->
<!-- Title: dependencies Pages: 1 -->
<svg width="504pt" height="284pt"
 viewBox="0.00 0.00 504.00 284.00" xmlns="http://www.w3.org/2000/svg" xmlns:xlink="http://www.w3.org/1999/xlink">
<g id="graph0" class="graph" transform="scale(1 1) rotate(0) translate(4 280)">
<title>dependencies</title>
<polygon fill="#ffffff" stroke="transparent" points="-4,4 -4,-280 500,-280 500,4 -4,4"/>
<text text-anchor="start" x="227.0091" y="-42.4" font-family="sans-serif" font-weight="bold" font-size="14.00" fill="#000000">Legend</text>
<polygon fill="#ffffb3" stroke="transparent" points="14,-10 14,-30 34,-30 34,-10 14,-10"/>
<text text-anchor="start" x="37.629" y="-15.4" font-family="sans-serif" font-size="14.00" fill="#000000"> &#160;Declarations</text>
<polygon fill="#8dd3c7" stroke="transparent" points="127,-10 127,-30 147,-30 147,-10 127,-10"/>
<text text-anchor="start" x="150.7251" y="-15.4" font-family="sans-serif" font-size="14.00" fill="#000000"> &#160;Module</text>
<polygon fill="#80b1d3" stroke="transparent" points="213,-10 213,-30 233,-30 233,-10 213,-10"/>
<text text-anchor="start" x="236.7812" y="-15.4" font-family="sans-serif" font-size="14.00" fill="#000000"> &#160;Bootstrap</text>
<polygon fill="#fdb462" stroke="transparent" points="310,-10 310,-30 330,-30 330,-10 310,-10"/>
<text text-anchor="start" x="333.6732" y="-15.4" font-family="sans-serif" font-size="14.00" fill="#000000"> &#160;Providers</text>
<polygon fill="#fb8072" stroke="transparent" points="406,-10 406,-30 426,-30 426,-10 406,-10"/>
<text text-anchor="start" x="429.7258" y="-15.4" font-family="sans-serif" font-size="14.00" fill="#000000"> &#160;Exports</text>
<g id="clust1" class="cluster">
<title>cluster_WidgetChartsModule</title>
<polygon fill="none" stroke="#000000" stroke-dasharray="1,5" points="69,-70 69,-268 427,-268 427,-70 69,-70"/>
</g>
<g id="clust2" class="cluster">
<title>cluster_WidgetChartsModule_declarations</title>
<polygon fill="none" stroke="#000000" points="81,-78 81,-130 416,-130 416,-78 81,-78"/>
</g>
<g id="clust6" class="cluster">
<title>cluster_WidgetChartsModule_exports</title>
<polygon fill="none" stroke="#000000" points="77,-208 77,-260 419,-260 419,-208 77,-208"/>
</g>
<!-- BarChartComponent -->
<g id="node1" class="node">
<title>BarChartComponent</title>
<polygon fill="#ffffb3" stroke="#000000" points="408.1471,-122 275.8529,-122 275.8529,-86 408.1471,-86 408.1471,-122"/>
<text text-anchor="middle" x="342" y="-99.8" font-family="Times,serif" font-size="14.00" fill="#000000">BarChartComponent</text>
</g>
<!-- WidgetChartsModule -->
<g id="node3" class="node">
<title>WidgetChartsModule</title>
<polygon fill="#8dd3c7" stroke="#000000" points="242.8075,-187 239.8075,-191 218.8075,-191 215.8075,-187 105.1925,-187 105.1925,-151 242.8075,-151 242.8075,-187"/>
<text text-anchor="middle" x="174" y="-164.8" font-family="Times,serif" font-size="14.00" fill="#000000">WidgetChartsModule</text>
</g>
<!-- BarChartComponent&#45;&gt;WidgetChartsModule -->
<g id="edge1" class="edge">
<title>BarChartComponent&#45;&gt;WidgetChartsModule</title>
<path fill="none" stroke="#000000" d="M364.1078,-122.0225C364.1078,-139.3734 364.1078,-163 364.1078,-163 364.1078,-163 252.9021,-163 252.9021,-163"/>
<polygon fill="#000000" stroke="#000000" points="252.9021,-159.5001 242.9021,-163 252.902,-166.5001 252.9021,-159.5001"/>
</g>
<!-- DoughnutChartComponent -->
<g id="node2" class="node">
<title>DoughnutChartComponent</title>
<polygon fill="#ffffb3" stroke="#000000" points="257.4326,-122 88.5674,-122 88.5674,-86 257.4326,-86 257.4326,-122"/>
<text text-anchor="middle" x="173" y="-99.8" font-family="Times,serif" font-size="14.00" fill="#000000">DoughnutChartComponent</text>
</g>
<!-- DoughnutChartComponent&#45;&gt;WidgetChartsModule -->
<g id="edge2" class="edge">
<title>DoughnutChartComponent&#45;&gt;WidgetChartsModule</title>
<path fill="none" stroke="#000000" d="M174,-122.1061C174,-122.1061 174,-140.991 174,-140.991"/>
<polygon fill="#000000" stroke="#000000" points="170.5001,-140.9909 174,-150.991 177.5001,-140.991 170.5001,-140.9909"/>
</g>
<!-- BarChartComponent  -->
<g id="node4" class="node">
<title>BarChartComponent </title>
<polygon fill="#fb8072" stroke="#000000" points="411.1467,-252 274.8533,-252 274.8533,-216 411.1467,-216 411.1467,-252"/>
<text text-anchor="middle" x="343" y="-229.8" font-family="Times,serif" font-size="14.00" fill="#000000">BarChartComponent </text>
</g>
<!-- WidgetChartsModule&#45;&gt;BarChartComponent  -->
<g id="edge3" class="edge">
<title>WidgetChartsModule&#45;&gt;BarChartComponent </title>
<path fill="none" stroke="#000000" stroke-dasharray="5,2" d="M242.6741,-175C280.5141,-175 319.8922,-175 319.8922,-175 319.8922,-175 319.8922,-205.9775 319.8922,-205.9775"/>
<polygon fill="#000000" stroke="#000000" points="316.3923,-205.9774 319.8922,-215.9775 323.3923,-205.9775 316.3923,-205.9774"/>
</g>
<!-- DoughnutChartComponent  -->
<g id="node5" class="node">
<title>DoughnutChartComponent </title>
<polygon fill="#fb8072" stroke="#000000" points="256.932,-252 85.068,-252 85.068,-216 256.932,-216 256.932,-252"/>
<text text-anchor="middle" x="171" y="-229.8" font-family="Times,serif" font-size="14.00" fill="#000000">DoughnutChartComponent </text>
</g>
<!-- WidgetChartsModule&#45;&gt;DoughnutChartComponent  -->
<g id="edge4" class="edge">
<title>WidgetChartsModule&#45;&gt;DoughnutChartComponent </title>
<path fill="none" stroke="#000000" stroke-dasharray="5,2" d="M174,-187.1061C174,-187.1061 174,-205.991 174,-205.991"/>
<polygon fill="#000000" stroke="#000000" points="170.5001,-205.9909 174,-215.991 177.5001,-205.991 170.5001,-205.9909"/>
</g>
</g>
</svg>
