<?xml version="1.0" encoding="UTF-8" standalone="no"?>
<!DOCTYPE svg PUBLIC "-//W3C//DTD SVG 1.1//EN"
 "http://www.w3.org/Graphics/SVG/1.1/DTD/svg11.dtd">
<!-- Generated by graphviz version 2.40.1 (20161225.0304)
 -->
<!-- Title: dependencies Pages: 1 -->
<svg width="504pt" height="211pt"
 viewBox="0.00 0.00 504.00 211.00" xmlns="http://www.w3.org/2000/svg" xmlns:xlink="http://www.w3.org/1999/xlink">
<g id="graph0" class="graph" transform="scale(1 1) rotate(0) translate(4 207)">
<title>dependencies</title>
<polygon fill="#ffffff" stroke="transparent" points="-4,4 -4,-207 500,-207 500,4 -4,4"/>
<text text-anchor="start" x="227.0091" y="-42.4" font-family="sans-serif" font-weight="bold" font-size="14.00" fill="#000000">Legend</text>
<polygon fill="#ffffb3" stroke="transparent" points="14,-10 14,-30 34,-30 34,-10 14,-10"/>
<text text-anchor="start" x="37.629" y="-15.4" font-family="sans-serif" font-size="14.00" fill="#000000"> &#160;Declarations</text>
<polygon fill="#8dd3c7" stroke="transparent" points="127,-10 127,-30 147,-30 147,-10 127,-10"/>
<text text-anchor="start" x="150.7251" y="-15.4" font-family="sans-serif" font-size="14.00" fill="#000000"> &#160;Module</text>
<polygon fill="#80b1d3" stroke="transparent" points="213,-10 213,-30 233,-30 233,-10 213,-10"/>
<text text-anchor="start" x="236.7812" y="-15.4" font-family="sans-serif" font-size="14.00" fill="#000000"> &#160;Bootstrap</text>
<polygon fill="#fdb462" stroke="transparent" points="310,-10 310,-30 330,-30 330,-10 310,-10"/>
<text text-anchor="start" x="333.6732" y="-15.4" font-family="sans-serif" font-size="14.00" fill="#000000"> &#160;Providers</text>
<polygon fill="#fb8072" stroke="transparent" points="406,-10 406,-30 426,-30 426,-10 406,-10"/>
<text text-anchor="start" x="429.7258" y="-15.4" font-family="sans-serif" font-size="14.00" fill="#000000"> &#160;Exports</text>
<g id="clust1" class="cluster">
<title>cluster_UserManagementModule</title>
<polygon fill="none" stroke="#000000" stroke-dasharray="1,5" points="80,-70 80,-195 416,-195 416,-70 80,-70"/>
</g>
<g id="clust2" class="cluster">
<title>cluster_UserManagementModule_declarations</title>
<polygon fill="none" stroke="#000000" points="212,-78 212,-130 408,-130 408,-78 212,-78"/>
</g>
<g id="clust4" class="cluster">
<title>cluster_UserManagementModule_imports</title>
<polygon fill="none" stroke="#000000" points="88,-78 88,-130 204,-130 204,-78 88,-78"/>
</g>
<!-- UserManagementComponent -->
<g id="node1" class="node">
<title>UserManagementComponent</title>
<polygon fill="#ffffb3" stroke="#000000" points="400.3431,-122 219.6569,-122 219.6569,-86 400.3431,-86 400.3431,-122"/>
<text text-anchor="middle" x="310" y="-99.8" font-family="Times,serif" font-size="14.00" fill="#000000">UserManagementComponent</text>
</g>
<!-- UserManagementModule -->
<g id="node2" class="node">
<title>UserManagementModule</title>
<polygon fill="#8dd3c7" stroke="#000000" points="318.5604,-187 315.5604,-191 294.5604,-191 291.5604,-187 159.4396,-187 159.4396,-151 318.5604,-151 318.5604,-187"/>
<text text-anchor="middle" x="239" y="-164.8" font-family="Times,serif" font-size="14.00" fill="#000000">UserManagementModule</text>
</g>
<!-- UserManagementComponent&#45;&gt;UserManagementModule -->
<g id="edge1" class="edge">
<title>UserManagementComponent&#45;&gt;UserManagementModule</title>
<path fill="none" stroke="#000000" d="M269.0544,-122.1061C269.0544,-122.1061 269.0544,-140.991 269.0544,-140.991"/>
<polygon fill="#000000" stroke="#000000" points="265.5544,-140.9909 269.0544,-150.991 272.5544,-140.991 265.5544,-140.9909"/>
</g>
<!-- LayoutModule -->
<g id="node3" class="node">
<title>LayoutModule</title>
<polygon fill="#8dd3c7" stroke="#000000" points="195.7078,-122 192.7078,-126 171.7078,-126 168.7078,-122 96.2922,-122 96.2922,-86 195.7078,-86 195.7078,-122"/>
<text text-anchor="middle" x="146" y="-99.8" font-family="Times,serif" font-size="14.00" fill="#000000">LayoutModule</text>
</g>
<!-- LayoutModule&#45;&gt;UserManagementModule -->
<g id="edge2" class="edge">
<title>LayoutModule&#45;&gt;UserManagementModule</title>
<path fill="none" stroke="#000000" d="M177.5368,-122.1061C177.5368,-122.1061 177.5368,-140.991 177.5368,-140.991"/>
<polygon fill="#000000" stroke="#000000" points="174.0369,-140.9909 177.5368,-150.991 181.0369,-140.991 174.0369,-140.9909"/>
</g>
</g>
</svg>
