<?xml version="1.0" encoding="UTF-8" standalone="no"?>
<!DOCTYPE svg PUBLIC "-//W3C//DTD SVG 1.1//EN"
 "http://www.w3.org/Graphics/SVG/1.1/DTD/svg11.dtd">
<!-- Generated by graphviz version 2.40.1 (20161225.0304)
 -->
<!-- Title: dependencies Pages: 1 -->
<svg width="504pt" height="284pt"
 viewBox="0.00 0.00 504.00 284.00" xmlns="http://www.w3.org/2000/svg" xmlns:xlink="http://www.w3.org/1999/xlink">
<g id="graph0" class="graph" transform="scale(1 1) rotate(0) translate(4 280)">
<title>dependencies</title>
<polygon fill="#ffffff" stroke="transparent" points="-4,4 -4,-280 500,-280 500,4 -4,4"/>
<text text-anchor="start" x="227.0091" y="-42.4" font-family="sans-serif" font-weight="bold" font-size="14.00" fill="#000000">Legend</text>
<polygon fill="#ffffb3" stroke="transparent" points="14,-10 14,-30 34,-30 34,-10 14,-10"/>
<text text-anchor="start" x="37.629" y="-15.4" font-family="sans-serif" font-size="14.00" fill="#000000"> &#160;Declarations</text>
<polygon fill="#8dd3c7" stroke="transparent" points="127,-10 127,-30 147,-30 147,-10 127,-10"/>
<text text-anchor="start" x="150.7251" y="-15.4" font-family="sans-serif" font-size="14.00" fill="#000000"> &#160;Module</text>
<polygon fill="#80b1d3" stroke="transparent" points="213,-10 213,-30 233,-30 233,-10 213,-10"/>
<text text-anchor="start" x="236.7812" y="-15.4" font-family="sans-serif" font-size="14.00" fill="#000000"> &#160;Bootstrap</text>
<polygon fill="#fdb462" stroke="transparent" points="310,-10 310,-30 330,-30 330,-10 310,-10"/>
<text text-anchor="start" x="333.6732" y="-15.4" font-family="sans-serif" font-size="14.00" fill="#000000"> &#160;Providers</text>
<polygon fill="#fb8072" stroke="transparent" points="406,-10 406,-30 426,-30 426,-10 406,-10"/>
<text text-anchor="start" x="429.7258" y="-15.4" font-family="sans-serif" font-size="14.00" fill="#000000"> &#160;Exports</text>
<g id="clust1" class="cluster">
<title>cluster_PortletModule</title>
<polygon fill="none" stroke="#000000" stroke-dasharray="1,5" points="118,-70 118,-268 378,-268 378,-70 118,-70"/>
</g>
<g id="clust2" class="cluster">
<title>cluster_PortletModule_declarations</title>
<polygon fill="none" stroke="#000000" points="236,-78 236,-130 370,-130 370,-78 236,-78"/>
</g>
<g id="clust4" class="cluster">
<title>cluster_PortletModule_imports</title>
<polygon fill="none" stroke="#000000" points="126,-78 126,-130 228,-130 228,-78 126,-78"/>
</g>
<g id="clust5" class="cluster">
<title>cluster_PortletModule_exports</title>
<polygon fill="none" stroke="#000000" points="179,-208 179,-260 317,-260 317,-208 179,-208"/>
</g>
<!-- PortletComponent -->
<g id="node1" class="node">
<title>PortletComponent</title>
<polygon fill="#ffffb3" stroke="#000000" points="362.1625,-122 243.8375,-122 243.8375,-86 362.1625,-86 362.1625,-122"/>
<text text-anchor="middle" x="303" y="-99.8" font-family="Times,serif" font-size="14.00" fill="#000000">PortletComponent</text>
</g>
<!-- PortletModule -->
<g id="node2" class="node">
<title>PortletModule</title>
<polygon fill="#8dd3c7" stroke="#000000" points="296.3795,-187 293.3795,-191 272.3795,-191 269.3795,-187 199.6205,-187 199.6205,-151 296.3795,-151 296.3795,-187"/>
<text text-anchor="middle" x="248" y="-164.8" font-family="Times,serif" font-size="14.00" fill="#000000">PortletModule</text>
</g>
<!-- PortletComponent&#45;&gt;PortletModule -->
<g id="edge1" class="edge">
<title>PortletComponent&#45;&gt;PortletModule</title>
<path fill="none" stroke="#000000" d="M270.0544,-122.1061C270.0544,-122.1061 270.0544,-140.991 270.0544,-140.991"/>
<polygon fill="#000000" stroke="#000000" points="266.5544,-140.9909 270.0544,-150.991 273.5544,-140.991 266.5544,-140.9909"/>
</g>
<!-- PortletComponent  -->
<g id="node4" class="node">
<title>PortletComponent </title>
<polygon fill="#fb8072" stroke="#000000" points="309.1621,-252 186.8379,-252 186.8379,-216 309.1621,-216 309.1621,-252"/>
<text text-anchor="middle" x="248" y="-229.8" font-family="Times,serif" font-size="14.00" fill="#000000">PortletComponent </text>
</g>
<!-- PortletModule&#45;&gt;PortletComponent  -->
<g id="edge3" class="edge">
<title>PortletModule&#45;&gt;PortletComponent </title>
<path fill="none" stroke="#000000" stroke-dasharray="5,2" d="M248,-187.1061C248,-187.1061 248,-205.991 248,-205.991"/>
<polygon fill="#000000" stroke="#000000" points="244.5001,-205.9909 248,-215.991 251.5001,-205.991 244.5001,-205.9909"/>
</g>
<!-- CoreModule -->
<g id="node3" class="node">
<title>CoreModule</title>
<polygon fill="#8dd3c7" stroke="#000000" points="220.2619,-122 217.2619,-126 196.2619,-126 193.2619,-122 133.7381,-122 133.7381,-86 220.2619,-86 220.2619,-122"/>
<text text-anchor="middle" x="177" y="-99.8" font-family="Times,serif" font-size="14.00" fill="#000000">CoreModule</text>
</g>
<!-- CoreModule&#45;&gt;PortletModule -->
<g id="edge2" class="edge">
<title>CoreModule&#45;&gt;PortletModule</title>
<path fill="none" stroke="#000000" d="M209.9706,-122.1061C209.9706,-122.1061 209.9706,-140.991 209.9706,-140.991"/>
<polygon fill="#000000" stroke="#000000" points="206.4706,-140.9909 209.9706,-150.991 213.4706,-140.991 206.4706,-140.9909"/>
</g>
</g>
</svg>
